<?xml version="1.0" encoding="UTF-8" standalone="no"?>
<!DOCTYPE svg PUBLIC "-//W3C//DTD SVG 1.1//EN"
 "http://www.w3.org/Graphics/SVG/1.1/DTD/svg11.dtd">
<!-- Generated by graphviz version 2.43.0 (0)
 -->
<!-- Title: G Pages: 1 -->
<svg width="189pt" height="196pt"
 viewBox="0.00 0.00 189.00 196.00" xmlns="http://www.w3.org/2000/svg" xmlns:xlink="http://www.w3.org/1999/xlink">
<g id="graph0" class="graph" transform="scale(1 1) rotate(0) translate(4 192)">
<title>G</title>
<polygon fill="white" stroke="transparent" points="-4,4 -4,-192 185,-192 185,4 -4,4"/>
<g id="clust1" class="cluster">
<title>cluster_depth_0</title>
<path fill="white" stroke="lightgray" d="M20,-8C20,-8 71,-8 71,-8 77,-8 83,-14 83,-20 83,-20 83,-83 83,-83 83,-89 77,-95 71,-95 71,-95 20,-95 20,-95 14,-95 8,-89 8,-83 8,-83 8,-20 8,-20 8,-14 14,-8 20,-8"/>
<text text-anchor="middle" x="45.5" y="-83" font-family="Times,serif" font-size="10.00">depth 0</text>
</g>
<g id="clust2" class="cluster">
<title>cluster_depth_1</title>
<path fill="white" stroke="lightgray" d="M22.5,-103C22.5,-103 161,-103 161,-103 167,-103 173,-109 173,-115 173,-115 173,-168 173,-168 173,-174 167,-180 161,-180 161,-180 22.5,-180 22.5,-180 16.5,-180 10.5,-174 10.5,-168 10.5,-168 10.5,-115 10.5,-115 10.5,-109 16.5,-103 22.5,-103"/>
<text text-anchor="middle" x="91.75" y="-168" font-family="Times,serif" font-size="10.00">depth 1</text>
</g>
<!-- n0 -->
<g id="node1" class="node">
<title>n0</title>
<polygon fill="none" stroke="black" points="75,-68 16,-68 16,-16 75,-16 75,-68"/>
<text text-anchor="middle" x="45.5" y="-56" font-family="monospace" font-size="10.00">id=0</text>
<text text-anchor="middle" x="45.5" y="-45" font-family="monospace" font-size="10.00">[0]×1</text>
<text text-anchor="middle" x="45.5" y="-34" font-family="monospace" font-size="10.00">[0,1]×1</text>
<text text-anchor="middle" x="45.5" y="-23" font-family="monospace" font-size="10.00">[1,0]×1</text>
</g>
<!-- n1 -->
<g id="node2" class="node">
<title>n1</title>
<polygon fill="none" stroke="black" points="72.5,-150 18.5,-150 18.5,-114 72.5,-114 72.5,-150"/>
<text text-anchor="middle" x="45.5" y="-135" font-family="monospace" font-size="10.00">id=1</text>
<text text-anchor="middle" x="45.5" y="-124" font-family="monospace" font-size="10.00">[0]×2</text>
</g>
<!-- n2 -->
<g id="node3" class="node">
<title>n2</title>
<polygon fill="none" stroke="black" points="165,-152.5 111,-152.5 111,-111.5 165,-111.5 165,-152.5"/>
<text text-anchor="middle" x="138" y="-140.5" font-family="monospace" font-size="10.00">id=2</text>
<text text-anchor="middle" x="138" y="-129.5" font-family="monospace" font-size="10.00">[0]×1</text>
<text text-anchor="middle" x="138" y="-118.5" font-family="monospace" font-size="10.00">[1]×1</text>
</g>
<!-- n1&#45;&gt;n2 -->
<g id="edge1" class="edge">
<title>n1&#45;&gt;n2</title>
<path fill="none" stroke="royalblue" stroke-dasharray="5,2" d="M72.68,-132C84.68,-132 98.88,-132 110.88,-132"/>
</g>
</g>
</svg>
