<?xml version="1.0" encoding="UTF-8" standalone="no"?>
<!DOCTYPE svg PUBLIC "-//W3C//DTD SVG 1.1//EN"
 "http://www.w3.org/Graphics/SVG/1.1/DTD/svg11.dtd">
<!-- Generated by graphviz version 2.43.0 (0)
 -->
<!-- Title: G Pages: 1 -->
<svg width="395pt" height="160pt"
 viewBox="0.00 0.00 395.00 160.00" xmlns="http://www.w3.org/2000/svg" xmlns:xlink="http://www.w3.org/1999/xlink">
<g id="graph0" class="graph" transform="scale(1 1) rotate(0) translate(4 156)">
<title>G</title>
<polygon fill="white" stroke="transparent" points="-4,4 -4,-156 391,-156 391,4 -4,4"/>
<g id="clust1" class="cluster">
<title>cluster_depth_0</title>
<path fill="white" stroke="lightgray" d="M20,-8C20,-8 71,-8 71,-8 77,-8 83,-14 83,-20 83,-20 83,-95 83,-95 83,-101 77,-107 71,-107 71,-107 20,-107 20,-107 14,-107 8,-101 8,-95 8,-95 8,-20 8,-20 8,-14 14,-8 20,-8"/>
<text text-anchor="middle" x="45.5" y="-95" font-family="Times,serif" font-size="10.00">depth 0</text>
</g>
<g id="clust2" class="cluster">
<title>cluster_depth_1</title>
<path fill="white" stroke="lightgray" d="M168,-45C168,-45 367,-45 367,-45 373,-45 379,-51 379,-57 379,-57 379,-132 379,-132 379,-138 373,-144 367,-144 367,-144 168,-144 168,-144 162,-144 156,-138 156,-132 156,-132 156,-57 156,-57 156,-51 162,-45 168,-45"/>
<text text-anchor="middle" x="267.5" y="-132" font-family="Times,serif" font-size="10.00">depth 1</text>
</g>
<!-- n0 -->
<g id="node1" class="node">
<title>n0</title>
<polygon fill="none" stroke="black" points="75,-79.5 16,-79.5 16,-16.5 75,-16.5 75,-79.5"/>
<text text-anchor="middle" x="45.5" y="-67.5" font-family="monospace" font-size="10.00">id=0</text>
<text text-anchor="middle" x="45.5" y="-56.5" font-family="monospace" font-size="10.00">[0]×1</text>
<text text-anchor="middle" x="45.5" y="-45.5" font-family="monospace" font-size="10.00">[0,1]×1</text>
<text text-anchor="middle" x="45.5" y="-34.5" font-family="monospace" font-size="10.00">[0,2]×1</text>
<text text-anchor="middle" x="45.5" y="-23.5" font-family="monospace" font-size="10.00">[1,2]×1</text>
</g>
<!-- n1 -->
<g id="node2" class="node">
<title>n1</title>
<polygon fill="none" stroke="black" points="223,-116.5 164,-116.5 164,-53.5 223,-53.5 223,-116.5"/>
<text text-anchor="middle" x="193.5" y="-104.5" font-family="monospace" font-size="10.00">id=1</text>
<text text-anchor="middle" x="193.5" y="-93.5" font-family="monospace" font-size="10.00">[1]×1</text>
<text text-anchor="middle" x="193.5" y="-82.5" font-family="monospace" font-size="10.00">[0,1]×1</text>
<text text-anchor="middle" x="193.5" y="-71.5" font-family="monospace" font-size="10.00">[0,2]×1</text>
<text text-anchor="middle" x="193.5" y="-60.5" font-family="monospace" font-size="10.00">[1,2]×1</text>
</g>
<!-- n0&#45;&gt;n1 -->
<g id="edge1" class="edge">
<title>n0&#45;&gt;n1</title>
<path fill="none" stroke="black" d="M75.34,-55.31C97.84,-61.01 129.3,-68.98 153.95,-75.23"/>
<polygon fill="black" stroke="black" points="153.16,-78.64 163.72,-77.71 154.88,-71.86 153.16,-78.64"/>
<text text-anchor="middle" x="119.5" y="-75.8" font-family="monospace" font-size="9.00">r0 σ=(0,1)</text>
</g>
<!-- n2 -->
<g id="node3" class="node">
<title>n2</title>
<polygon fill="none" stroke="black" points="371,-116.5 312,-116.5 312,-53.5 371,-53.5 371,-116.5"/>
<text text-anchor="middle" x="341.5" y="-104.5" font-family="monospace" font-size="10.00">id=2</text>
<text text-anchor="middle" x="341.5" y="-93.5" font-family="monospace" font-size="10.00">[2]×1</text>
<text text-anchor="middle" x="341.5" y="-82.5" font-family="monospace" font-size="10.00">[0,1]×1</text>
<text text-anchor="middle" x="341.5" y="-71.5" font-family="monospace" font-size="10.00">[0,2]×1</text>
<text text-anchor="middle" x="341.5" y="-60.5" font-family="monospace" font-size="10.00">[1,2]×1</text>
</g>
<!-- n0&#45;&gt;n2 -->
<g id="edge2" class="edge">
<title>n0&#45;&gt;n2</title>
<path fill="none" stroke="black" d="M75.24,-40.79C110.43,-33.09 171.69,-23.34 223,-34 250.82,-39.78 280.13,-52.49 302.52,-63.77"/>
<polygon fill="black" stroke="black" points="301.18,-67.02 311.67,-68.5 304.39,-60.8 301.18,-67.02"/>
<text text-anchor="middle" x="193.5" y="-36.8" font-family="monospace" font-size="9.00">r0 σ=(0,2)</text>
</g>
<!-- n1&#45;&gt;n2 -->
<g id="edge3" class="edge">
<title>n1&#45;&gt;n2</title>
<path fill="none" stroke="black" d="M223.34,-85C245.74,-85 277.02,-85 301.62,-85"/>
<polygon fill="black" stroke="black" points="301.72,-88.5 311.72,-85 301.71,-81.5 301.72,-88.5"/>
<text text-anchor="middle" x="267.5" y="-87.8" font-family="monospace" font-size="9.00">r0 σ=(1,2)</text>
</g>
</g>
</svg>
