<?xml version="1.0" encoding="UTF-8" standalone="no"?>
<!DOCTYPE svg PUBLIC "-//W3C//DTD SVG 1.1//EN"
 "http://www.w3.org/Graphics/SVG/1.1/DTD/svg11.dtd">
<!-- Generated by graphviz version 2.43.0 (0)
 -->
<!-- Title: G Pages: 1 -->
<svg width="194pt" height="230pt"
 viewBox="0.00 0.00 194.00 230.00" xmlns="http://www.w3.org/2000/svg" xmlns:xlink="http://www.w3.org/1999/xlink">
<g id="graph0" class="graph" transform="scale(1 1) rotate(0) translate(4 226)">
<title>G</title>
<polygon fill="white" stroke="transparent" points="-4,4 -4,-226 190,-226 190,4 -4,4"/>
<g id="clust1" class="cluster">
<title>cluster_depth_0</title>
<path fill="white" stroke="lightgray" d="M20,-8C20,-8 71,-8 71,-8 77,-8 83,-14 83,-20 83,-20 83,-95 83,-95 83,-101 77,-107 71,-107 71,-107 20,-107 20,-107 14,-107 8,-101 8,-95 8,-95 8,-20 8,-20 8,-14 14,-8 20,-8"/>
<text text-anchor="middle" x="45.5" y="-95" font-family="Times,serif" font-size="10.00">depth 0</text>
</g>
<g id="clust2" class="cluster">
<title>cluster_depth_1</title>
<path fill="white" stroke="lightgray" d="M20,-115C20,-115 166,-115 166,-115 172,-115 178,-121 178,-127 178,-127 178,-202 178,-202 178,-208 172,-214 166,-214 166,-214 20,-214 20,-214 14,-214 8,-208 8,-202 8,-202 8,-127 8,-127 8,-121 14,-115 20,-115"/>
<text text-anchor="middle" x="93" y="-202" font-family="Times,serif" font-size="10.00">depth 1</text>
</g>
<!-- n0 -->
<g id="node1" class="node">
<title>n0</title>
<polygon fill="none" stroke="black" points="75,-79.5 16,-79.5 16,-16.5 75,-16.5 75,-79.5"/>
<text text-anchor="middle" x="45.5" y="-67.5" font-family="monospace" font-size="10.00">id=0</text>
<text text-anchor="middle" x="45.5" y="-56.5" font-family="monospace" font-size="10.00">[0]×1</text>
<text text-anchor="middle" x="45.5" y="-45.5" font-family="monospace" font-size="10.00">[0,1]×1</text>
<text text-anchor="middle" x="45.5" y="-34.5" font-family="monospace" font-size="10.00">[0,2]×1</text>
<text text-anchor="middle" x="45.5" y="-23.5" font-family="monospace" font-size="10.00">[1,2]×1</text>
</g>
<!-- n1 -->
<g id="node2" class="node">
<title>n1</title>
<polygon fill="none" stroke="black" points="75,-186.5 16,-186.5 16,-123.5 75,-123.5 75,-186.5"/>
<text text-anchor="middle" x="45.5" y="-174.5" font-family="monospace" font-size="10.00">id=1</text>
<text text-anchor="middle" x="45.5" y="-163.5" font-family="monospace" font-size="10.00">[1]×1</text>
<text text-anchor="middle" x="45.5" y="-152.5" font-family="monospace" font-size="10.00">[0,1]×1</text>
<text text-anchor="middle" x="45.5" y="-141.5" font-family="monospace" font-size="10.00">[0,2]×1</text>
<text text-anchor="middle" x="45.5" y="-130.5" font-family="monospace" font-size="10.00">[1,2]×1</text>
</g>
<!-- n2 -->
<g id="node3" class="node">
<title>n2</title>
<polygon fill="none" stroke="black" points="170,-186.5 111,-186.5 111,-123.5 170,-123.5 170,-186.5"/>
<text text-anchor="middle" x="140.5" y="-174.5" font-family="monospace" font-size="10.00">id=2</text>
<text text-anchor="middle" x="140.5" y="-163.5" font-family="monospace" font-size="10.00">[2]×1</text>
<text text-anchor="middle" x="140.5" y="-152.5" font-family="monospace" font-size="10.00">[0,1]×1</text>
<text text-anchor="middle" x="140.5" y="-141.5" font-family="monospace" font-size="10.00">[0,2]×1</text>
<text text-anchor="middle" x="140.5" y="-130.5" font-family="monospace" font-size="10.00">[1,2]×1</text>
</g>
<!-- n1&#45;&gt;n2 -->
<g id="edge1" class="edge">
<title>n1&#45;&gt;n2</title>
<path fill="none" stroke="royalblue" stroke-dasharray="5,2" d="M75.16,-155C86.48,-155 99.45,-155 110.77,-155"/>
</g>
</g>
</svg>
