<?xml version="1.0" encoding="UTF-8" standalone="no"?>
<!DOCTYPE svg PUBLIC "-//W3C//DTD SVG 1.1//EN"
 "http://www.w3.org/Graphics/SVG/1.1/DTD/svg11.dtd">
<!-- Generated by graphviz version 2.43.0 (0)
 -->
<!-- Title: G Pages: 1 -->
<svg width="242pt" height="155pt"
 viewBox="0.00 0.00 242.00 155.00" xmlns="http://www.w3.org/2000/svg" xmlns:xlink="http://www.w3.org/1999/xlink">
<g id="graph0" class="graph" transform="scale(1 1) rotate(0) translate(4 151)">
<title>G</title>
<polygon fill="white" stroke="transparent" points="-4,4 -4,-151 238,-151 238,4 -4,4"/>
<g id="clust1" class="cluster">
<title>cluster_depth_0</title>
<path fill="white" stroke="lightgray" d="M20,-30C20,-30 71,-30 71,-30 77,-30 83,-36 83,-42 83,-42 83,-105 83,-105 83,-111 77,-117 71,-117 71,-117 20,-117 20,-117 14,-117 8,-111 8,-105 8,-105 8,-42 8,-42 8,-36 14,-30 20,-30"/>
<text text-anchor="middle" x="45.5" y="-105" font-family="Times,serif" font-size="10.00">depth 0</text>
</g>
<g id="clust2" class="cluster">
<title>cluster_depth_1</title>
<path fill="white" stroke="lightgray" d="M168,-8C168,-8 214,-8 214,-8 220,-8 226,-14 226,-20 226,-20 226,-127 226,-127 226,-133 220,-139 214,-139 214,-139 168,-139 168,-139 162,-139 156,-133 156,-127 156,-127 156,-20 156,-20 156,-14 162,-8 168,-8"/>
<text text-anchor="middle" x="191" y="-127" font-family="Times,serif" font-size="10.00">depth 1</text>
</g>
<!-- n0 -->
<g id="node1" class="node">
<title>n0</title>
<polygon fill="none" stroke="black" points="75,-90 16,-90 16,-38 75,-38 75,-90"/>
<text text-anchor="middle" x="45.5" y="-78" font-family="monospace" font-size="10.00">id=0</text>
<text text-anchor="middle" x="45.5" y="-67" font-family="monospace" font-size="10.00">[0]×1</text>
<text text-anchor="middle" x="45.5" y="-56" font-family="monospace" font-size="10.00">[0,1]×1</text>
<text text-anchor="middle" x="45.5" y="-45" font-family="monospace" font-size="10.00">[1,0]×1</text>
</g>
<!-- n1 -->
<g id="node2" class="node">
<title>n1</title>
<polygon fill="none" stroke="black" points="218,-112 164,-112 164,-76 218,-76 218,-112"/>
<text text-anchor="middle" x="191" y="-97" font-family="monospace" font-size="10.00">id=1</text>
<text text-anchor="middle" x="191" y="-86" font-family="monospace" font-size="10.00">[0]×2</text>
</g>
<!-- n0&#45;&gt;n1 -->
<g id="edge1" class="edge">
<title>n0&#45;&gt;n1</title>
<path fill="none" stroke="black" d="M75.19,-70C97.81,-74.73 129.48,-81.35 153.83,-86.44"/>
<polygon fill="black" stroke="black" points="153.27,-89.9 163.77,-88.52 154.7,-83.04 153.27,-89.9"/>
<text text-anchor="middle" x="119.5" y="-86.8" font-family="monospace" font-size="9.00">r0 σ=(0,1)</text>
</g>
<!-- n2 -->
<g id="node3" class="node">
<title>n2</title>
<polygon fill="none" stroke="black" points="218,-57.5 164,-57.5 164,-16.5 218,-16.5 218,-57.5"/>
<text text-anchor="middle" x="191" y="-45.5" font-family="monospace" font-size="10.00">id=2</text>
<text text-anchor="middle" x="191" y="-34.5" font-family="monospace" font-size="10.00">[0]×1</text>
<text text-anchor="middle" x="191" y="-23.5" font-family="monospace" font-size="10.00">[1]×1</text>
</g>
<!-- n0&#45;&gt;n2 -->
<g id="edge2" class="edge">
<title>n0&#45;&gt;n2</title>
<path fill="none" stroke="black" d="M75.34,-54.54C81.14,-52.86 87.23,-51.25 93,-50 112.95,-45.69 135.52,-42.56 153.88,-40.46"/>
<polygon fill="black" stroke="black" points="154.31,-43.93 163.87,-39.36 153.55,-36.97 154.31,-43.93"/>
<text text-anchor="middle" x="119.5" y="-52.8" font-family="monospace" font-size="9.00">r0 σ=(1,0)</text>
</g>
</g>
</svg>
