<?xml version="1.0" encoding="UTF-8" standalone="no"?>
<!DOCTYPE svg PUBLIC "-//W3C//DTD SVG 1.1//EN"
 "http://www.w3.org/Graphics/SVG/1.1/DTD/svg11.dtd">
<!-- Generated by graphviz version 2.43.0 (0)
 -->
<!-- Title: WL_Crosscheck Pages: 1 -->
<svg width="1626pt" height="290pt"
 viewBox="0.00 0.00 1625.80 289.80" xmlns="http://www.w3.org/2000/svg" xmlns:xlink="http://www.w3.org/1999/xlink">
<g id="graph0" class="graph" transform="scale(1 1) rotate(0) translate(14.4 275.4)">
<title>WL_Crosscheck</title>
<polygon fill="#0b0f14" stroke="transparent" points="-14.4,14.4 -14.4,-275.4 1611.4,-275.4 1611.4,14.4 -14.4,14.4"/>
<g id="clust1" class="cluster">
<title>cluster_lean</title>
<path fill="#0b0f14" stroke="#1c2a3a" d="M323,-180C323,-180 829,-180 829,-180 835,-180 841,-186 841,-192 841,-192 841,-241 841,-241 841,-247 835,-253 829,-253 829,-253 323,-253 323,-253 317,-253 311,-247 311,-241 311,-241 311,-192 311,-192 311,-186 317,-180 323,-180"/>
<text text-anchor="middle" x="576" y="-239.4" font-family="Helvetica,sans-Serif" font-size="12.00" fill="#b8c7d9">Lean side (authoritative semantics)</text>
</g>
<g id="clust2" class="cluster">
<title>cluster_wl</title>
<path fill="#0b0f14" stroke="#1c2a3a" d="M20,-8C20,-8 838,-8 838,-8 844,-8 850,-14 850,-20 850,-20 850,-160 850,-160 850,-166 844,-172 838,-172 838,-172 20,-172 20,-172 14,-172 8,-166 8,-160 8,-160 8,-20 8,-20 8,-14 14,-8 20,-8"/>
<text text-anchor="middle" x="429" y="-158.4" font-family="Helvetica,sans-Serif" font-size="12.00" fill="#b8c7d9">Wolfram Language side (independent replication)</text>
</g>
<g id="clust3" class="cluster">
<title>cluster_runtime</title>
<path fill="#0b0f14" stroke="#1c2a3a" stroke-dasharray="5,2" d="M28,-16C28,-16 245,-16 245,-16 251,-16 257,-22 257,-28 257,-28 257,-131 257,-131 257,-137 251,-143 245,-143 245,-143 28,-143 28,-143 22,-143 16,-137 16,-131 16,-131 16,-28 16,-28 16,-22 22,-16 28,-16"/>
<text text-anchor="middle" x="136.5" y="-129.4" font-family="Helvetica,sans-Serif" font-size="12.00" fill="#b8c7d9">WL runtime (choose one)</text>
</g>
<!-- leanExe -->
<g id="node1" class="node">
<title>leanExe</title>
<path fill="#0f1721" stroke="#1c2a3a" d="M520,-224C520,-224 331,-224 331,-224 325,-224 319,-218 319,-212 319,-212 319,-200 319,-200 319,-194 325,-188 331,-188 331,-188 520,-188 520,-188 526,-188 532,-194 532,-200 532,-200 532,-212 532,-212 532,-218 526,-224 520,-224"/>
<text text-anchor="middle" x="425.5" y="-209.2" font-family="Helvetica,sans-Serif" font-size="11.00" fill="#e6eef7">`lake exe wolfram_multiway_demo`</text>
<text text-anchor="middle" x="425.5" y="-197.2" font-family="Helvetica,sans-Serif" font-size="11.00" fill="#e6eef7">(CE1 / CE2 bounded multiway JSON)</text>
</g>
<!-- leanJSON -->
<g id="node2" class="node">
<title>leanJSON</title>
<path fill="#0b1320" stroke="#1c2a3a" d="M821,-224C821,-224 674,-224 674,-224 668,-224 662,-218 662,-212 662,-212 662,-200 662,-200 662,-194 668,-188 674,-188 674,-188 821,-188 821,-188 827,-188 833,-194 833,-200 833,-200 833,-212 833,-212 833,-218 827,-224 821,-224"/>
<text text-anchor="middle" x="747.5" y="-209.2" font-family="Helvetica,sans-Serif" font-size="11.00" fill="#e6eef7">artifacts/generated_ce1.json</text>
<text text-anchor="middle" x="747.5" y="-197.2" font-family="Helvetica,sans-Serif" font-size="11.00" fill="#e6eef7">artifacts/generated_ce2.json</text>
</g>
<!-- leanExe&#45;&gt;leanJSON -->
<g id="edge1" class="edge">
<title>leanExe&#45;&gt;leanJSON</title>
<path fill="none" stroke="#8ab4f8" d="M532.17,-206C571.84,-206 616.57,-206 654.87,-206"/>
<polygon fill="#8ab4f8" stroke="#8ab4f8" points="654.94,-208.45 661.94,-206 654.94,-203.55 654.94,-208.45"/>
<text text-anchor="middle" x="592.5" y="-209" font-family="Helvetica,sans-Serif" font-size="10.00" fill="#b8c7d9">emit</text>
</g>
<!-- verifier -->
<g id="node7" class="node">
<title>verifier</title>
<path fill="#0f1721" stroke="#1c2a3a" d="M1079,-187C1079,-187 891,-187 891,-187 885,-187 879,-181 879,-175 879,-175 879,-163 879,-163 879,-157 885,-151 891,-151 891,-151 1079,-151 1079,-151 1085,-151 1091,-157 1091,-163 1091,-163 1091,-175 1091,-175 1091,-181 1085,-187 1079,-187"/>
<text text-anchor="middle" x="985" y="-172.2" font-family="Helvetica,sans-Serif" font-size="11.00" fill="#e6eef7">scripts/verify_wolfram_wl.sh</text>
<text text-anchor="middle" x="985" y="-160.2" font-family="Helvetica,sans-Serif" font-size="11.00" fill="#e6eef7">(WL↔Lean JSON equivalence check)</text>
</g>
<!-- leanJSON&#45;&gt;verifier -->
<g id="edge5" class="edge">
<title>leanJSON&#45;&gt;verifier</title>
<path fill="none" stroke="#8ab4f8" d="M833.19,-192.69C845.65,-190.74 858.65,-188.69 871.56,-186.67"/>
<polygon fill="#8ab4f8" stroke="#8ab4f8" points="872.19,-189.05 878.72,-185.54 871.43,-184.21 872.19,-189.05"/>
</g>
<!-- wlScript -->
<g id="node3" class="node">
<title>wlScript</title>
<path fill="#0f1721" stroke="#1c2a3a" d="M507,-114C507,-114 344,-114 344,-114 338,-114 332,-108 332,-102 332,-102 332,-90 332,-90 332,-84 338,-78 344,-78 344,-78 507,-78 507,-78 513,-78 519,-84 519,-90 519,-90 519,-102 519,-102 519,-108 513,-114 507,-114"/>
<text text-anchor="middle" x="425.5" y="-99.2" font-family="Helvetica,sans-Serif" font-size="11.00" fill="#e6eef7">tools/wolfram_ce1_ce2.wl</text>
<text text-anchor="middle" x="425.5" y="-87.2" font-family="Helvetica,sans-Serif" font-size="11.00" fill="#e6eef7">(WL reference implementation)</text>
</g>
<!-- wlJSON -->
<g id="node6" class="node">
<title>wlJSON</title>
<path fill="#0b1320" stroke="#1c2a3a" d="M830,-135C830,-135 665,-135 665,-135 659,-135 653,-129 653,-123 653,-123 653,-111 653,-111 653,-105 659,-99 665,-99 665,-99 830,-99 830,-99 836,-99 842,-105 842,-111 842,-111 842,-123 842,-123 842,-129 836,-135 830,-135"/>
<text text-anchor="middle" x="747.5" y="-120.2" font-family="Helvetica,sans-Serif" font-size="11.00" fill="#e6eef7">artifacts/wl_generated_ce1.json</text>
<text text-anchor="middle" x="747.5" y="-108.2" font-family="Helvetica,sans-Serif" font-size="11.00" fill="#e6eef7">artifacts/wl_generated_ce2.json</text>
</g>
<!-- wlScript&#45;&gt;wlJSON -->
<g id="edge4" class="edge">
<title>wlScript&#45;&gt;wlJSON</title>
<path fill="none" stroke="#8ab4f8" d="M519.06,-102.07C558.67,-104.67 605.04,-107.72 645.54,-110.37"/>
<polygon fill="#8ab4f8" stroke="#8ab4f8" points="645.62,-112.83 652.76,-110.85 645.94,-107.95 645.62,-112.83"/>
<text text-anchor="middle" x="592.5" y="-112" font-family="Helvetica,sans-Serif" font-size="10.00" fill="#b8c7d9">print/export JSON</text>
</g>
<!-- wolframscript -->
<g id="node4" class="node">
<title>wolframscript</title>
<path fill="#0f1721" stroke="#1c2a3a" d="M237,-60C237,-60 36,-60 36,-60 30,-60 24,-54 24,-48 24,-48 24,-36 24,-36 24,-30 30,-24 36,-24 36,-24 237,-24 237,-24 243,-24 249,-30 249,-36 249,-36 249,-48 249,-48 249,-54 243,-60 237,-60"/>
<text text-anchor="middle" x="136.5" y="-45.2" font-family="Helvetica,sans-Serif" font-size="11.00" fill="#e6eef7">Wolfram Engine</text>
<text text-anchor="middle" x="136.5" y="-33.2" font-family="Helvetica,sans-Serif" font-size="11.00" fill="#e6eef7">`wolframscript` (preferred if installed)</text>
</g>
<!-- wolframscript&#45;&gt;wlScript -->
<g id="edge2" class="edge">
<title>wolframscript&#45;&gt;wlScript</title>
<path fill="none" stroke="#8ab4f8" d="M233.47,-60.06C262.73,-65.56 294.97,-71.63 324.5,-77.18"/>
<polygon fill="#8ab4f8" stroke="#8ab4f8" points="324.21,-79.62 331.55,-78.51 325.12,-74.81 324.21,-79.62"/>
<text text-anchor="middle" x="284" y="-75" font-family="Helvetica,sans-Serif" font-size="10.00" fill="#b8c7d9">Get[...]</text>
</g>
<!-- mathics -->
<g id="node5" class="node">
<title>mathics</title>
<path fill="#0f1721" stroke="#1c2a3a" d="M196.5,-114C196.5,-114 76.5,-114 76.5,-114 70.5,-114 64.5,-108 64.5,-102 64.5,-102 64.5,-90 64.5,-90 64.5,-84 70.5,-78 76.5,-78 76.5,-78 196.5,-78 196.5,-78 202.5,-78 208.5,-84 208.5,-90 208.5,-90 208.5,-102 208.5,-102 208.5,-108 202.5,-114 196.5,-114"/>
<text text-anchor="middle" x="136.5" y="-99.2" font-family="Helvetica,sans-Serif" font-size="11.00" fill="#e6eef7">Mathics3 (open&#45;source)</text>
<text text-anchor="middle" x="136.5" y="-87.2" font-family="Helvetica,sans-Serif" font-size="11.00" fill="#e6eef7">`mathics` (fallback)</text>
</g>
<!-- mathics&#45;&gt;wlScript -->
<g id="edge3" class="edge">
<title>mathics&#45;&gt;wlScript</title>
<path fill="none" stroke="#8ab4f8" d="M208.81,-96C243.82,-96 286.58,-96 324.77,-96"/>
<polygon fill="#8ab4f8" stroke="#8ab4f8" points="324.84,-98.45 331.84,-96 324.84,-93.55 324.84,-98.45"/>
<text text-anchor="middle" x="284" y="-99" font-family="Helvetica,sans-Serif" font-size="10.00" fill="#b8c7d9">Get[...]</text>
</g>
<!-- wlJSON&#45;&gt;verifier -->
<g id="edge6" class="edge">
<title>wlJSON&#45;&gt;verifier</title>
<path fill="none" stroke="#8ab4f8" d="M830.21,-135.04C851.3,-139.7 874.11,-144.74 895.54,-149.47"/>
<polygon fill="#8ab4f8" stroke="#8ab4f8" points="895.08,-151.87 902.44,-150.99 896.13,-147.09 895.08,-151.87"/>
</g>
<!-- canon -->
<g id="node8" class="node">
<title>canon</title>
<path fill="#0b1320" stroke="#1c2a3a" d="M1338,-187C1338,-187 1140,-187 1140,-187 1134,-187 1128,-181 1128,-175 1128,-175 1128,-163 1128,-163 1128,-157 1134,-151 1140,-151 1140,-151 1338,-151 1338,-151 1344,-151 1350,-157 1350,-163 1350,-163 1350,-175 1350,-175 1350,-181 1344,-187 1338,-187"/>
<text text-anchor="middle" x="1239" y="-172.2" font-family="Helvetica,sans-Serif" font-size="11.00" fill="#e6eef7">python3 canonicalize + compare</text>
<text text-anchor="middle" x="1239" y="-160.2" font-family="Helvetica,sans-Serif" font-size="11.00" fill="#e6eef7">(sort object keys; preserve list order)</text>
</g>
<!-- verifier&#45;&gt;canon -->
<g id="edge7" class="edge">
<title>verifier&#45;&gt;canon</title>
<path fill="none" stroke="#8ab4f8" d="M1091.05,-169C1100.83,-169 1110.78,-169 1120.66,-169"/>
<polygon fill="#8ab4f8" stroke="#8ab4f8" points="1120.84,-171.45 1127.84,-169 1120.84,-166.55 1120.84,-171.45"/>
</g>
<!-- ok -->
<g id="node9" class="node">
<title>ok</title>
<path fill="#14311e" stroke="#2a6d44" d="M1585,-187C1585,-187 1399,-187 1399,-187 1393,-187 1387,-181 1387,-175 1387,-175 1387,-163 1387,-163 1387,-157 1393,-151 1399,-151 1399,-151 1585,-151 1585,-151 1591,-151 1597,-157 1597,-163 1597,-163 1597,-175 1597,-175 1597,-181 1591,-187 1585,-187"/>
<text text-anchor="middle" x="1492" y="-166.2" font-family="Helvetica,sans-Serif" font-size="11.00" fill="#e6eef7">OK: CE1/CE2 JSON matches exactly</text>
</g>
<!-- canon&#45;&gt;ok -->
<g id="edge8" class="edge">
<title>canon&#45;&gt;ok</title>
<path fill="none" stroke="#8ab4f8" d="M1350.09,-169C1359.95,-169 1369.94,-169 1379.8,-169"/>
<polygon fill="#8ab4f8" stroke="#8ab4f8" points="1379.96,-171.45 1386.96,-169 1379.96,-166.55 1379.96,-171.45"/>
</g>
</g>
</svg>
