<?xml version="1.0" encoding="UTF-8" standalone="no"?>
<!DOCTYPE svg PUBLIC "-//W3C//DTD SVG 1.1//EN"
 "http://www.w3.org/Graphics/SVG/1.1/DTD/svg11.dtd">
<!-- Generated by graphviz version 2.43.0 (0)
 -->
<!-- Title: import_graph Pages: 1 -->
<svg width="908pt" height="260pt"
 viewBox="0.00 0.00 908.31 260.00" xmlns="http://www.w3.org/2000/svg" xmlns:xlink="http://www.w3.org/1999/xlink">
<g id="graph0" class="graph" transform="scale(1 1) rotate(0) translate(4 256)">
<title>import_graph</title>
<polygon fill="white" stroke="transparent" points="-4,4 -4,-256 904.31,-256 904.31,4 -4,4"/>
<!-- HeytingLean.WPP.Wolfram.WM148CausalInvariant -->
<g id="node1" class="node">
<title>HeytingLean.WPP.Wolfram.WM148CausalInvariant</title>
<polygon fill="none" stroke="black" points="802.3,-23.56 496.13,-36 189.96,-23.56 190.24,-3.44 802.01,-3.44 802.3,-23.56"/>
<text text-anchor="middle" x="496.13" y="-14.3" font-family="Times,serif" font-size="14.00">HeytingLean.WPP.Wolfram.WM148CausalInvariant</text>
</g>
<!-- HeytingLean.WPP.Wolfram.CausalInvarianceSingleLHS -->
<g id="node2" class="node">
<title>HeytingLean.WPP.Wolfram.CausalInvarianceSingleLHS</title>
<ellipse fill="none" stroke="black" cx="267.13" cy="-90" rx="267.25" ry="18"/>
<text text-anchor="middle" x="267.13" y="-86.3" font-family="Times,serif" font-size="14.00">HeytingLean.WPP.Wolfram.CausalInvarianceSingleLHS</text>
</g>
<!-- HeytingLean.WPP.Wolfram.CausalInvarianceSingleLHS&#45;&gt;HeytingLean.WPP.Wolfram.WM148CausalInvariant -->
<g id="edge1" class="edge">
<title>HeytingLean.WPP.Wolfram.CausalInvarianceSingleLHS&#45;&gt;HeytingLean.WPP.Wolfram.WM148CausalInvariant</title>
<path fill="none" stroke="black" d="M321.69,-72.32C356.39,-61.71 401.33,-47.98 436.9,-37.1"/>
<polygon fill="black" stroke="black" points="438.13,-40.39 446.67,-34.12 436.08,-33.69 438.13,-40.39"/>
</g>
<!-- HeytingLean.WPP.Wolfram.WM148 -->
<g id="node3" class="node">
<title>HeytingLean.WPP.Wolfram.WM148</title>
<ellipse fill="none" stroke="black" cx="726.13" cy="-90" rx="174.37" ry="18"/>
<text text-anchor="middle" x="726.13" y="-86.3" font-family="Times,serif" font-size="14.00">HeytingLean.WPP.Wolfram.WM148</text>
</g>
<!-- HeytingLean.WPP.Wolfram.WM148&#45;&gt;HeytingLean.WPP.Wolfram.WM148CausalInvariant -->
<g id="edge2" class="edge">
<title>HeytingLean.WPP.Wolfram.WM148&#45;&gt;HeytingLean.WPP.Wolfram.WM148CausalInvariant</title>
<path fill="none" stroke="black" d="M673.07,-72.85C638.03,-62.19 592.04,-48.19 555.73,-37.14"/>
<polygon fill="black" stroke="black" points="556.35,-33.67 545.77,-34.11 554.31,-40.37 556.35,-33.67"/>
</g>
<!-- HeytingLean.WPP.Wolfram.RewriteFresh -->
<g id="node4" class="node">
<title>HeytingLean.WPP.Wolfram.RewriteFresh</title>
<ellipse fill="none" stroke="black" cx="496.13" cy="-162" rx="201.46" ry="18"/>
<text text-anchor="middle" x="496.13" y="-158.3" font-family="Times,serif" font-size="14.00">HeytingLean.WPP.Wolfram.RewriteFresh</text>
</g>
<!-- HeytingLean.WPP.Wolfram.RewriteFresh&#45;&gt;HeytingLean.WPP.Wolfram.CausalInvarianceSingleLHS -->
<g id="edge6" class="edge">
<title>HeytingLean.WPP.Wolfram.RewriteFresh&#45;&gt;HeytingLean.WPP.Wolfram.CausalInvarianceSingleLHS</title>
<path fill="none" stroke="black" d="M442.44,-144.59C409.21,-134.43 366.35,-121.33 331.33,-110.62"/>
<polygon fill="black" stroke="black" points="332.26,-107.25 321.67,-107.67 330.21,-113.94 332.26,-107.25"/>
</g>
<!-- HeytingLean.WPP.Wolfram.RewriteFresh&#45;&gt;HeytingLean.WPP.Wolfram.WM148 -->
<g id="edge5" class="edge">
<title>HeytingLean.WPP.Wolfram.RewriteFresh&#45;&gt;HeytingLean.WPP.Wolfram.WM148</title>
<path fill="none" stroke="black" d="M550.05,-144.59C583.91,-134.28 627.72,-120.95 663.17,-110.16"/>
<polygon fill="black" stroke="black" points="664.39,-113.45 672.94,-107.19 662.35,-106.75 664.39,-113.45"/>
</g>
<!-- HeytingLean.WPP.Wolfram.FreshSupply -->
<g id="node5" class="node">
<title>HeytingLean.WPP.Wolfram.FreshSupply</title>
<ellipse fill="#e0e0e0" stroke="black" cx="292.13" cy="-234" rx="196.87" ry="18"/>
<text text-anchor="middle" x="292.13" y="-230.3" font-family="Times,serif" font-size="14.00">HeytingLean.WPP.Wolfram.FreshSupply</text>
</g>
<!-- HeytingLean.WPP.Wolfram.FreshSupply&#45;&gt;HeytingLean.WPP.Wolfram.RewriteFresh -->
<g id="edge3" class="edge">
<title>HeytingLean.WPP.Wolfram.FreshSupply&#45;&gt;HeytingLean.WPP.Wolfram.RewriteFresh</title>
<path fill="none" stroke="black" d="M340.21,-216.5C369.55,-206.43 407.24,-193.5 438.21,-182.87"/>
<polygon fill="black" stroke="black" points="439.69,-186.07 448.01,-179.51 437.41,-179.45 439.69,-186.07"/>
</g>
<!-- HeytingLean.WPP.Wolfram.Hypergraph -->
<g id="node6" class="node">
<title>HeytingLean.WPP.Wolfram.Hypergraph</title>
<ellipse fill="none" stroke="black" cx="701.13" cy="-234" rx="194.17" ry="18"/>
<text text-anchor="middle" x="701.13" y="-230.3" font-family="Times,serif" font-size="14.00">HeytingLean.WPP.Wolfram.Hypergraph</text>
</g>
<!-- HeytingLean.WPP.Wolfram.Hypergraph&#45;&gt;HeytingLean.WPP.Wolfram.RewriteFresh -->
<g id="edge4" class="edge">
<title>HeytingLean.WPP.Wolfram.Hypergraph&#45;&gt;HeytingLean.WPP.Wolfram.RewriteFresh</title>
<path fill="none" stroke="black" d="M652.8,-216.5C623.32,-206.43 585.45,-193.5 554.33,-182.87"/>
<polygon fill="black" stroke="black" points="555.07,-179.43 544.48,-179.51 552.81,-186.05 555.07,-179.43"/>
</g>
</g>
</svg>
