<?xml version="1.0" encoding="utf-8"?>
<svg xmlns="http://www.w3.org/2000/svg" width="1500" height="900" viewBox="0 0 1500 900" role="img" aria-label="UMAP preview">
<rect x="0" y="0" width="1500" height="900" fill="#0b0f14"/>
<text x="50" y="32" fill="#ffffff" font-size="20" font-family="ui-sans-serif,system-ui,Segoe UI,Roboto,Helvetica,Arial">UMAP 2D — WM148 proof/declaration map</text>
<text x="50" y="48" fill="#b8c7d9" font-size="12" font-family="ui-sans-serif,system-ui,Segoe UI,Roboto,Helvetica,Arial">Points: declarations • Colors: module family • Edges: kNN similarity links (source-text features)</text>
<rect x="50" y="50" width="1090" height="800" fill="#0f1721" stroke="#1c2a3a" stroke-width="1"/>
<line x1="115.35" y1="338.41" x2="72.05" y2="320.54" stroke="#3b4b5d" stroke-opacity="0.18" stroke-width="1"/>
<line x1="115.35" y1="338.41" x2="674.94" y2="818.37" stroke="#3b4b5d" stroke-opacity="0.18" stroke-width="1"/>
<line x1="115.35" y1="338.41" x2="104.46" y2="335.17" stroke="#3b4b5d" stroke-opacity="0.18" stroke-width="1"/>
<line x1="115.35" y1="338.41" x2="191.03" y2="175.79" stroke="#3b4b5d" stroke-opacity="0.18" stroke-width="1"/>
<line x1="115.35" y1="338.41" x2="984.29" y2="192.36" stroke="#3b4b5d" stroke-opacity="0.18" stroke-width="1"/>
<line x1="72.05" y1="320.54" x2="674.94" y2="818.37" stroke="#3b4b5d" stroke-opacity="0.18" stroke-width="1"/>
<line x1="72.05" y1="320.54" x2="104.46" y2="335.17" stroke="#3b4b5d" stroke-opacity="0.18" stroke-width="1"/>
<line x1="72.05" y1="320.54" x2="191.03" y2="175.79" stroke="#3b4b5d" stroke-opacity="0.18" stroke-width="1"/>
<line x1="72.05" y1="320.54" x2="984.29" y2="192.36" stroke="#3b4b5d" stroke-opacity="0.18" stroke-width="1"/>
<line x1="1082.71" y1="669.59" x2="1078.88" y2="694.47" stroke="#3b4b5d" stroke-opacity="0.18" stroke-width="1"/>
<line x1="1082.71" y1="669.59" x2="719.67" y2="806.40" stroke="#3b4b5d" stroke-opacity="0.18" stroke-width="1"/>
<line x1="1082.71" y1="669.59" x2="1068.81" y2="239.86" stroke="#3b4b5d" stroke-opacity="0.18" stroke-width="1"/>
<line x1="1082.71" y1="669.59" x2="938.11" y2="320.16" stroke="#3b4b5d" stroke-opacity="0.18" stroke-width="1"/>
<line x1="1082.71" y1="669.59" x2="1065.62" y2="314.91" stroke="#3b4b5d" stroke-opacity="0.18" stroke-width="1"/>
<line x1="674.94" y1="818.37" x2="104.46" y2="335.17" stroke="#3b4b5d" stroke-opacity="0.18" stroke-width="1"/>
<line x1="674.94" y1="818.37" x2="191.03" y2="175.79" stroke="#3b4b5d" stroke-opacity="0.18" stroke-width="1"/>
<line x1="674.94" y1="818.37" x2="984.29" y2="192.36" stroke="#3b4b5d" stroke-opacity="0.18" stroke-width="1"/>
<line x1="108.19" y1="334.95" x2="938.11" y2="320.16" stroke="#3b4b5d" stroke-opacity="0.18" stroke-width="1"/>
<line x1="108.19" y1="334.95" x2="225.29" y2="203.76" stroke="#3b4b5d" stroke-opacity="0.18" stroke-width="1"/>
<line x1="108.19" y1="334.95" x2="1065.62" y2="314.91" stroke="#3b4b5d" stroke-opacity="0.18" stroke-width="1"/>
<line x1="108.19" y1="334.95" x2="719.67" y2="806.40" stroke="#3b4b5d" stroke-opacity="0.18" stroke-width="1"/>
<line x1="83.27" y1="207.48" x2="920.97" y2="295.15" stroke="#3b4b5d" stroke-opacity="0.18" stroke-width="1"/>
<line x1="83.27" y1="207.48" x2="1002.94" y2="147.74" stroke="#3b4b5d" stroke-opacity="0.18" stroke-width="1"/>
<line x1="83.27" y1="207.48" x2="1130.32" y2="364.01" stroke="#3b4b5d" stroke-opacity="0.18" stroke-width="1"/>
<line x1="83.27" y1="207.48" x2="989.27" y2="136.24" stroke="#3b4b5d" stroke-opacity="0.18" stroke-width="1"/>
<line x1="83.27" y1="207.48" x2="1042.73" y2="193.90" stroke="#3b4b5d" stroke-opacity="0.18" stroke-width="1"/>
<line x1="191.03" y1="175.79" x2="104.46" y2="335.17" stroke="#3b4b5d" stroke-opacity="0.18" stroke-width="1"/>
<line x1="191.03" y1="175.79" x2="984.29" y2="192.36" stroke="#3b4b5d" stroke-opacity="0.18" stroke-width="1"/>
<line x1="191.03" y1="175.79" x2="226.43" y2="166.67" stroke="#3b4b5d" stroke-opacity="0.18" stroke-width="1"/>
<line x1="191.03" y1="175.79" x2="971.30" y2="406.37" stroke="#3b4b5d" stroke-opacity="0.18" stroke-width="1"/>
<line x1="825.16" y1="824.49" x2="942.06" y2="154.22" stroke="#3b4b5d" stroke-opacity="0.18" stroke-width="1"/>
<line x1="825.16" y1="824.49" x2="1009.13" y2="437.49" stroke="#3b4b5d" stroke-opacity="0.18" stroke-width="1"/>
<line x1="825.16" y1="824.49" x2="819.82" y2="788.53" stroke="#3b4b5d" stroke-opacity="0.18" stroke-width="1"/>
<line x1="825.16" y1="824.49" x2="842.49" y2="78.80" stroke="#3b4b5d" stroke-opacity="0.18" stroke-width="1"/>
<line x1="825.16" y1="824.49" x2="844.83" y2="837.63" stroke="#3b4b5d" stroke-opacity="0.18" stroke-width="1"/>
<line x1="956.98" y1="293.76" x2="936.30" y2="408.78" stroke="#3b4b5d" stroke-opacity="0.18" stroke-width="1"/>
<line x1="956.98" y1="293.76" x2="680.71" y2="815.84" stroke="#3b4b5d" stroke-opacity="0.18" stroke-width="1"/>
<line x1="956.98" y1="293.76" x2="922.26" y2="326.47" stroke="#3b4b5d" stroke-opacity="0.18" stroke-width="1"/>
<line x1="956.98" y1="293.76" x2="971.30" y2="406.37" stroke="#3b4b5d" stroke-opacity="0.18" stroke-width="1"/>
<line x1="956.98" y1="293.76" x2="231.40" y2="229.83" stroke="#3b4b5d" stroke-opacity="0.18" stroke-width="1"/>
<line x1="153.35" y1="223.93" x2="315.67" y2="209.00" stroke="#3b4b5d" stroke-opacity="0.18" stroke-width="1"/>
<line x1="153.35" y1="223.93" x2="825.01" y2="340.74" stroke="#3b4b5d" stroke-opacity="0.18" stroke-width="1"/>
<line x1="153.35" y1="223.93" x2="367.82" y2="214.53" stroke="#3b4b5d" stroke-opacity="0.18" stroke-width="1"/>
<line x1="153.35" y1="223.93" x2="1038.27" y2="337.74" stroke="#3b4b5d" stroke-opacity="0.18" stroke-width="1"/>
<line x1="153.35" y1="223.93" x2="50.00" y2="182.36" stroke="#3b4b5d" stroke-opacity="0.18" stroke-width="1"/>
<line x1="776.30" y1="850.00" x2="1046.03" y2="705.31" stroke="#3b4b5d" stroke-opacity="0.18" stroke-width="1"/>
<line x1="776.30" y1="850.00" x2="1026.61" y2="690.09" stroke="#3b4b5d" stroke-opacity="0.18" stroke-width="1"/>
<line x1="776.30" y1="850.00" x2="791.95" y2="179.81" stroke="#3b4b5d" stroke-opacity="0.18" stroke-width="1"/>
<line x1="776.30" y1="850.00" x2="991.72" y2="536.57" stroke="#3b4b5d" stroke-opacity="0.18" stroke-width="1"/>
<line x1="776.30" y1="850.00" x2="844.83" y2="837.63" stroke="#3b4b5d" stroke-opacity="0.18" stroke-width="1"/>
<line x1="166.79" y1="235.38" x2="231.40" y2="229.83" stroke="#3b4b5d" stroke-opacity="0.18" stroke-width="1"/>
<line x1="166.79" y1="235.38" x2="680.71" y2="815.84" stroke="#3b4b5d" stroke-opacity="0.18" stroke-width="1"/>
<line x1="166.79" y1="235.38" x2="936.30" y2="408.78" stroke="#3b4b5d" stroke-opacity="0.18" stroke-width="1"/>
<line x1="166.79" y1="235.38" x2="719.78" y2="789.95" stroke="#3b4b5d" stroke-opacity="0.18" stroke-width="1"/>
<line x1="938.11" y1="320.16" x2="1065.62" y2="314.91" stroke="#3b4b5d" stroke-opacity="0.18" stroke-width="1"/>
<line x1="938.11" y1="320.16" x2="225.29" y2="203.76" stroke="#3b4b5d" stroke-opacity="0.18" stroke-width="1"/>
<line x1="938.11" y1="320.16" x2="719.67" y2="806.40" stroke="#3b4b5d" stroke-opacity="0.18" stroke-width="1"/>
<line x1="1078.88" y1="694.47" x2="1068.81" y2="239.86" stroke="#3b4b5d" stroke-opacity="0.18" stroke-width="1"/>
<line x1="1078.88" y1="694.47" x2="719.67" y2="806.40" stroke="#3b4b5d" stroke-opacity="0.18" stroke-width="1"/>
<line x1="1078.88" y1="694.47" x2="92.07" y2="185.09" stroke="#3b4b5d" stroke-opacity="0.18" stroke-width="1"/>
<line x1="787.08" y1="57.73" x2="852.45" y2="58.36" stroke="#3b4b5d" stroke-opacity="0.18" stroke-width="1"/>
<line x1="787.08" y1="57.73" x2="952.51" y2="119.17" stroke="#3b4b5d" stroke-opacity="0.18" stroke-width="1"/>
<line x1="787.08" y1="57.73" x2="940.79" y2="435.33" stroke="#3b4b5d" stroke-opacity="0.18" stroke-width="1"/>
<line x1="787.08" y1="57.73" x2="989.27" y2="136.24" stroke="#3b4b5d" stroke-opacity="0.18" stroke-width="1"/>
<line x1="787.08" y1="57.73" x2="1002.94" y2="147.74" stroke="#3b4b5d" stroke-opacity="0.18" stroke-width="1"/>
<line x1="842.49" y1="78.80" x2="806.47" y2="94.79" stroke="#3b4b5d" stroke-opacity="0.18" stroke-width="1"/>
<line x1="842.49" y1="78.80" x2="1009.13" y2="437.49" stroke="#3b4b5d" stroke-opacity="0.18" stroke-width="1"/>
<line x1="842.49" y1="78.80" x2="821.98" y2="50.00" stroke="#3b4b5d" stroke-opacity="0.18" stroke-width="1"/>
<line x1="842.49" y1="78.80" x2="844.83" y2="837.63" stroke="#3b4b5d" stroke-opacity="0.18" stroke-width="1"/>
<line x1="842.49" y1="78.80" x2="942.06" y2="154.22" stroke="#3b4b5d" stroke-opacity="0.18" stroke-width="1"/>
<line x1="989.27" y1="136.24" x2="1002.94" y2="147.74" stroke="#3b4b5d" stroke-opacity="0.18" stroke-width="1"/>
<line x1="989.27" y1="136.24" x2="1130.32" y2="364.01" stroke="#3b4b5d" stroke-opacity="0.18" stroke-width="1"/>
<line x1="989.27" y1="136.24" x2="952.51" y2="119.17" stroke="#3b4b5d" stroke-opacity="0.18" stroke-width="1"/>
<line x1="989.27" y1="136.24" x2="940.79" y2="435.33" stroke="#3b4b5d" stroke-opacity="0.18" stroke-width="1"/>
<line x1="989.27" y1="136.24" x2="1042.73" y2="193.90" stroke="#3b4b5d" stroke-opacity="0.18" stroke-width="1"/>
<line x1="1065.62" y1="314.91" x2="719.67" y2="806.40" stroke="#3b4b5d" stroke-opacity="0.18" stroke-width="1"/>
<line x1="1065.62" y1="314.91" x2="225.29" y2="203.76" stroke="#3b4b5d" stroke-opacity="0.18" stroke-width="1"/>
<line x1="819.82" y1="788.53" x2="307.77" y2="200.42" stroke="#3b4b5d" stroke-opacity="0.18" stroke-width="1"/>
<line x1="819.82" y1="788.53" x2="1137.39" y2="323.95" stroke="#3b4b5d" stroke-opacity="0.18" stroke-width="1"/>
<line x1="819.82" y1="788.53" x2="942.06" y2="154.22" stroke="#3b4b5d" stroke-opacity="0.18" stroke-width="1"/>
<line x1="819.82" y1="788.53" x2="852.45" y2="58.36" stroke="#3b4b5d" stroke-opacity="0.18" stroke-width="1"/>
<line x1="307.77" y1="200.42" x2="1137.39" y2="323.95" stroke="#3b4b5d" stroke-opacity="0.18" stroke-width="1"/>
<line x1="307.77" y1="200.42" x2="942.06" y2="154.22" stroke="#3b4b5d" stroke-opacity="0.18" stroke-width="1"/>
<line x1="307.77" y1="200.42" x2="852.45" y2="58.36" stroke="#3b4b5d" stroke-opacity="0.18" stroke-width="1"/>
<line x1="719.78" y1="789.95" x2="231.40" y2="229.83" stroke="#3b4b5d" stroke-opacity="0.18" stroke-width="1"/>
<line x1="719.78" y1="789.95" x2="225.29" y2="203.76" stroke="#3b4b5d" stroke-opacity="0.18" stroke-width="1"/>
<line x1="719.78" y1="789.95" x2="680.71" y2="815.84" stroke="#3b4b5d" stroke-opacity="0.18" stroke-width="1"/>
<line x1="712.94" y1="835.78" x2="1022.89" y2="429.30" stroke="#3b4b5d" stroke-opacity="0.18" stroke-width="1"/>
<line x1="712.94" y1="835.78" x2="1085.33" y2="711.57" stroke="#3b4b5d" stroke-opacity="0.18" stroke-width="1"/>
<line x1="712.94" y1="835.78" x2="771.13" y2="205.29" stroke="#3b4b5d" stroke-opacity="0.18" stroke-width="1"/>
<line x1="712.94" y1="835.78" x2="1140.00" y2="353.98" stroke="#3b4b5d" stroke-opacity="0.18" stroke-width="1"/>
<line x1="712.94" y1="835.78" x2="688.52" y2="219.67" stroke="#3b4b5d" stroke-opacity="0.18" stroke-width="1"/>
<line x1="99.54" y1="247.88" x2="757.26" y2="800.39" stroke="#3b4b5d" stroke-opacity="0.18" stroke-width="1"/>
<line x1="99.54" y1="247.88" x2="969.58" y2="483.84" stroke="#3b4b5d" stroke-opacity="0.18" stroke-width="1"/>
<line x1="99.54" y1="247.88" x2="958.17" y2="186.22" stroke="#3b4b5d" stroke-opacity="0.18" stroke-width="1"/>
<line x1="99.54" y1="247.88" x2="749.54" y2="831.69" stroke="#3b4b5d" stroke-opacity="0.18" stroke-width="1"/>
<line x1="99.54" y1="247.88" x2="920.97" y2="295.15" stroke="#3b4b5d" stroke-opacity="0.18" stroke-width="1"/>
<line x1="991.72" y1="536.57" x2="1023.01" y2="611.65" stroke="#3b4b5d" stroke-opacity="0.18" stroke-width="1"/>
<line x1="991.72" y1="536.57" x2="1046.03" y2="705.31" stroke="#3b4b5d" stroke-opacity="0.18" stroke-width="1"/>
<line x1="991.72" y1="536.57" x2="1026.61" y2="690.09" stroke="#3b4b5d" stroke-opacity="0.18" stroke-width="1"/>
<line x1="991.72" y1="536.57" x2="791.95" y2="179.81" stroke="#3b4b5d" stroke-opacity="0.18" stroke-width="1"/>
<line x1="1023.01" y1="611.65" x2="1046.03" y2="705.31" stroke="#3b4b5d" stroke-opacity="0.18" stroke-width="1"/>
<line x1="1023.01" y1="611.65" x2="1026.61" y2="690.09" stroke="#3b4b5d" stroke-opacity="0.18" stroke-width="1"/>
<line x1="1023.01" y1="611.65" x2="791.95" y2="179.81" stroke="#3b4b5d" stroke-opacity="0.18" stroke-width="1"/>
<line x1="731.78" y1="119.14" x2="785.96" y2="160.56" stroke="#3b4b5d" stroke-opacity="0.18" stroke-width="1"/>
<line x1="731.78" y1="119.14" x2="1035.61" y2="626.03" stroke="#3b4b5d" stroke-opacity="0.18" stroke-width="1"/>
<line x1="731.78" y1="119.14" x2="768.79" y2="98.40" stroke="#3b4b5d" stroke-opacity="0.18" stroke-width="1"/>
<line x1="731.78" y1="119.14" x2="1094.07" y2="386.30" stroke="#3b4b5d" stroke-opacity="0.18" stroke-width="1"/>
<line x1="688.52" y1="219.67" x2="771.13" y2="205.29" stroke="#3b4b5d" stroke-opacity="0.18" stroke-width="1"/>
<line x1="688.52" y1="219.67" x2="1069.30" y2="709.31" stroke="#3b4b5d" stroke-opacity="0.18" stroke-width="1"/>
<line x1="688.52" y1="219.67" x2="1022.89" y2="429.30" stroke="#3b4b5d" stroke-opacity="0.18" stroke-width="1"/>
<line x1="688.52" y1="219.67" x2="212.05" y2="208.18" stroke="#3b4b5d" stroke-opacity="0.18" stroke-width="1"/>
<line x1="1140.00" y1="353.98" x2="1085.33" y2="711.57" stroke="#3b4b5d" stroke-opacity="0.18" stroke-width="1"/>
<line x1="1140.00" y1="353.98" x2="929.64" y2="442.84" stroke="#3b4b5d" stroke-opacity="0.18" stroke-width="1"/>
<line x1="1140.00" y1="353.98" x2="1129.06" y2="294.02" stroke="#3b4b5d" stroke-opacity="0.18" stroke-width="1"/>
<line x1="1140.00" y1="353.98" x2="1022.89" y2="429.30" stroke="#3b4b5d" stroke-opacity="0.18" stroke-width="1"/>
<line x1="1140.00" y1="353.98" x2="1038.27" y2="337.74" stroke="#3b4b5d" stroke-opacity="0.18" stroke-width="1"/>
<line x1="367.82" y1="214.53" x2="1038.27" y2="337.74" stroke="#3b4b5d" stroke-opacity="0.18" stroke-width="1"/>
<line x1="367.82" y1="214.53" x2="825.01" y2="340.74" stroke="#3b4b5d" stroke-opacity="0.18" stroke-width="1"/>
<line x1="367.82" y1="214.53" x2="929.64" y2="442.84" stroke="#3b4b5d" stroke-opacity="0.18" stroke-width="1"/>
<line x1="1038.27" y1="337.74" x2="825.01" y2="340.74" stroke="#3b4b5d" stroke-opacity="0.18" stroke-width="1"/>
<line x1="1038.27" y1="337.74" x2="929.64" y2="442.84" stroke="#3b4b5d" stroke-opacity="0.18" stroke-width="1"/>
<line x1="1038.27" y1="337.74" x2="1129.06" y2="294.02" stroke="#3b4b5d" stroke-opacity="0.18" stroke-width="1"/>
<line x1="1068.81" y1="239.86" x2="92.07" y2="185.09" stroke="#3b4b5d" stroke-opacity="0.18" stroke-width="1"/>
<line x1="1068.81" y1="239.86" x2="719.67" y2="806.40" stroke="#3b4b5d" stroke-opacity="0.18" stroke-width="1"/>
<line x1="1130.32" y1="364.01" x2="1002.94" y2="147.74" stroke="#3b4b5d" stroke-opacity="0.18" stroke-width="1"/>
<line x1="1130.32" y1="364.01" x2="1042.73" y2="193.90" stroke="#3b4b5d" stroke-opacity="0.18" stroke-width="1"/>
<line x1="1130.32" y1="364.01" x2="940.79" y2="435.33" stroke="#3b4b5d" stroke-opacity="0.18" stroke-width="1"/>
<line x1="1009.13" y1="437.49" x2="806.47" y2="94.79" stroke="#3b4b5d" stroke-opacity="0.18" stroke-width="1"/>
<line x1="1009.13" y1="437.49" x2="844.83" y2="837.63" stroke="#3b4b5d" stroke-opacity="0.18" stroke-width="1"/>
<line x1="1009.13" y1="437.49" x2="821.98" y2="50.00" stroke="#3b4b5d" stroke-opacity="0.18" stroke-width="1"/>
<line x1="1009.13" y1="437.49" x2="942.06" y2="154.22" stroke="#3b4b5d" stroke-opacity="0.18" stroke-width="1"/>
<line x1="1026.61" y1="690.09" x2="791.95" y2="179.81" stroke="#3b4b5d" stroke-opacity="0.18" stroke-width="1"/>
<line x1="1026.61" y1="690.09" x2="844.83" y2="837.63" stroke="#3b4b5d" stroke-opacity="0.18" stroke-width="1"/>
<line x1="1026.61" y1="690.09" x2="821.98" y2="50.00" stroke="#3b4b5d" stroke-opacity="0.18" stroke-width="1"/>
<line x1="1026.61" y1="690.09" x2="806.47" y2="94.79" stroke="#3b4b5d" stroke-opacity="0.18" stroke-width="1"/>
<line x1="1022.89" y1="429.30" x2="771.13" y2="205.29" stroke="#3b4b5d" stroke-opacity="0.18" stroke-width="1"/>
<line x1="1022.89" y1="429.30" x2="1085.33" y2="711.57" stroke="#3b4b5d" stroke-opacity="0.18" stroke-width="1"/>
<line x1="1022.89" y1="429.30" x2="929.64" y2="442.84" stroke="#3b4b5d" stroke-opacity="0.18" stroke-width="1"/>
<line x1="936.30" y1="408.78" x2="680.71" y2="815.84" stroke="#3b4b5d" stroke-opacity="0.18" stroke-width="1"/>
<line x1="936.30" y1="408.78" x2="922.26" y2="326.47" stroke="#3b4b5d" stroke-opacity="0.18" stroke-width="1"/>
<line x1="936.30" y1="408.78" x2="971.30" y2="406.37" stroke="#3b4b5d" stroke-opacity="0.18" stroke-width="1"/>
<line x1="936.30" y1="408.78" x2="231.40" y2="229.83" stroke="#3b4b5d" stroke-opacity="0.18" stroke-width="1"/>
<line x1="749.54" y1="831.69" x2="185.13" y2="189.59" stroke="#3b4b5d" stroke-opacity="0.18" stroke-width="1"/>
<line x1="749.54" y1="831.69" x2="757.26" y2="800.39" stroke="#3b4b5d" stroke-opacity="0.18" stroke-width="1"/>
<line x1="749.54" y1="831.69" x2="969.58" y2="483.84" stroke="#3b4b5d" stroke-opacity="0.18" stroke-width="1"/>
<line x1="749.54" y1="831.69" x2="50.00" y2="182.36" stroke="#3b4b5d" stroke-opacity="0.18" stroke-width="1"/>
<line x1="1046.03" y1="705.31" x2="791.95" y2="179.81" stroke="#3b4b5d" stroke-opacity="0.18" stroke-width="1"/>
<line x1="1046.03" y1="705.31" x2="844.83" y2="837.63" stroke="#3b4b5d" stroke-opacity="0.18" stroke-width="1"/>
<line x1="1046.03" y1="705.31" x2="821.98" y2="50.00" stroke="#3b4b5d" stroke-opacity="0.18" stroke-width="1"/>
<line x1="1137.39" y1="323.95" x2="852.45" y2="58.36" stroke="#3b4b5d" stroke-opacity="0.18" stroke-width="1"/>
<line x1="1137.39" y1="323.95" x2="952.51" y2="119.17" stroke="#3b4b5d" stroke-opacity="0.18" stroke-width="1"/>
<line x1="1137.39" y1="323.95" x2="940.79" y2="435.33" stroke="#3b4b5d" stroke-opacity="0.18" stroke-width="1"/>
<line x1="771.13" y1="205.29" x2="1069.30" y2="709.31" stroke="#3b4b5d" stroke-opacity="0.18" stroke-width="1"/>
<line x1="771.13" y1="205.29" x2="212.05" y2="208.18" stroke="#3b4b5d" stroke-opacity="0.18" stroke-width="1"/>
<line x1="315.67" y1="209.00" x2="50.00" y2="182.36" stroke="#3b4b5d" stroke-opacity="0.18" stroke-width="1"/>
<line x1="315.67" y1="209.00" x2="825.01" y2="340.74" stroke="#3b4b5d" stroke-opacity="0.18" stroke-width="1"/>
<line x1="920.97" y1="295.15" x2="1042.73" y2="193.90" stroke="#3b4b5d" stroke-opacity="0.18" stroke-width="1"/>
<line x1="920.97" y1="295.15" x2="1002.94" y2="147.74" stroke="#3b4b5d" stroke-opacity="0.18" stroke-width="1"/>
<line x1="920.97" y1="295.15" x2="958.17" y2="186.22" stroke="#3b4b5d" stroke-opacity="0.18" stroke-width="1"/>
<line x1="1042.73" y1="193.90" x2="1002.94" y2="147.74" stroke="#3b4b5d" stroke-opacity="0.18" stroke-width="1"/>
<line x1="1042.73" y1="193.90" x2="940.79" y2="435.33" stroke="#3b4b5d" stroke-opacity="0.18" stroke-width="1"/>
<line x1="185.13" y1="189.59" x2="50.00" y2="182.36" stroke="#3b4b5d" stroke-opacity="0.18" stroke-width="1"/>
<line x1="185.13" y1="189.59" x2="757.26" y2="800.39" stroke="#3b4b5d" stroke-opacity="0.18" stroke-width="1"/>
<line x1="185.13" y1="189.59" x2="969.58" y2="483.84" stroke="#3b4b5d" stroke-opacity="0.18" stroke-width="1"/>
<line x1="929.64" y1="442.84" x2="1085.33" y2="711.57" stroke="#3b4b5d" stroke-opacity="0.18" stroke-width="1"/>
<line x1="929.64" y1="442.84" x2="1129.06" y2="294.02" stroke="#3b4b5d" stroke-opacity="0.18" stroke-width="1"/>
<line x1="1085.33" y1="711.57" x2="1129.06" y2="294.02" stroke="#3b4b5d" stroke-opacity="0.18" stroke-width="1"/>
<line x1="969.58" y1="483.84" x2="757.26" y2="800.39" stroke="#3b4b5d" stroke-opacity="0.18" stroke-width="1"/>
<line x1="969.58" y1="483.84" x2="958.17" y2="186.22" stroke="#3b4b5d" stroke-opacity="0.18" stroke-width="1"/>
<line x1="971.30" y1="406.37" x2="922.26" y2="326.47" stroke="#3b4b5d" stroke-opacity="0.18" stroke-width="1"/>
<line x1="971.30" y1="406.37" x2="680.71" y2="815.84" stroke="#3b4b5d" stroke-opacity="0.18" stroke-width="1"/>
<line x1="971.30" y1="406.37" x2="226.43" y2="166.67" stroke="#3b4b5d" stroke-opacity="0.18" stroke-width="1"/>
<line x1="984.29" y1="192.36" x2="226.43" y2="166.67" stroke="#3b4b5d" stroke-opacity="0.18" stroke-width="1"/>
<line x1="984.29" y1="192.36" x2="104.46" y2="335.17" stroke="#3b4b5d" stroke-opacity="0.18" stroke-width="1"/>
<line x1="984.29" y1="192.36" x2="922.26" y2="326.47" stroke="#3b4b5d" stroke-opacity="0.18" stroke-width="1"/>
<line x1="958.17" y1="186.22" x2="757.26" y2="800.39" stroke="#3b4b5d" stroke-opacity="0.18" stroke-width="1"/>
<line x1="821.98" y1="50.00" x2="806.47" y2="94.79" stroke="#3b4b5d" stroke-opacity="0.18" stroke-width="1"/>
<line x1="821.98" y1="50.00" x2="844.83" y2="837.63" stroke="#3b4b5d" stroke-opacity="0.18" stroke-width="1"/>
<line x1="821.98" y1="50.00" x2="791.95" y2="179.81" stroke="#3b4b5d" stroke-opacity="0.18" stroke-width="1"/>
<line x1="768.79" y1="98.40" x2="1035.61" y2="626.03" stroke="#3b4b5d" stroke-opacity="0.18" stroke-width="1"/>
<line x1="768.79" y1="98.40" x2="1094.07" y2="386.30" stroke="#3b4b5d" stroke-opacity="0.18" stroke-width="1"/>
<line x1="768.79" y1="98.40" x2="785.96" y2="160.56" stroke="#3b4b5d" stroke-opacity="0.18" stroke-width="1"/>
<line x1="952.51" y1="119.17" x2="940.79" y2="435.33" stroke="#3b4b5d" stroke-opacity="0.18" stroke-width="1"/>
<line x1="952.51" y1="119.17" x2="1002.94" y2="147.74" stroke="#3b4b5d" stroke-opacity="0.18" stroke-width="1"/>
<line x1="952.51" y1="119.17" x2="852.45" y2="58.36" stroke="#3b4b5d" stroke-opacity="0.18" stroke-width="1"/>
<line x1="852.45" y1="58.36" x2="940.79" y2="435.33" stroke="#3b4b5d" stroke-opacity="0.18" stroke-width="1"/>
<line x1="806.47" y1="94.79" x2="844.83" y2="837.63" stroke="#3b4b5d" stroke-opacity="0.18" stroke-width="1"/>
<line x1="806.47" y1="94.79" x2="791.95" y2="179.81" stroke="#3b4b5d" stroke-opacity="0.18" stroke-width="1"/>
<line x1="942.06" y1="154.22" x2="844.83" y2="837.63" stroke="#3b4b5d" stroke-opacity="0.18" stroke-width="1"/>
<line x1="844.83" y1="837.63" x2="791.95" y2="179.81" stroke="#3b4b5d" stroke-opacity="0.18" stroke-width="1"/>
<line x1="785.96" y1="160.56" x2="1035.61" y2="626.03" stroke="#3b4b5d" stroke-opacity="0.18" stroke-width="1"/>
<line x1="785.96" y1="160.56" x2="1094.07" y2="386.30" stroke="#3b4b5d" stroke-opacity="0.18" stroke-width="1"/>
<line x1="1094.07" y1="386.30" x2="1035.61" y2="626.03" stroke="#3b4b5d" stroke-opacity="0.18" stroke-width="1"/>
<line x1="104.46" y1="335.17" x2="226.43" y2="166.67" stroke="#3b4b5d" stroke-opacity="0.18" stroke-width="1"/>
<line x1="85.50" y1="171.19" x2="92.07" y2="185.09" stroke="#3b4b5d" stroke-opacity="0.18" stroke-width="1"/>
<line x1="85.50" y1="171.19" x2="212.05" y2="208.18" stroke="#3b4b5d" stroke-opacity="0.18" stroke-width="1"/>
<line x1="85.50" y1="171.19" x2="1069.30" y2="709.31" stroke="#3b4b5d" stroke-opacity="0.18" stroke-width="1"/>
<line x1="225.29" y1="203.76" x2="719.67" y2="806.40" stroke="#3b4b5d" stroke-opacity="0.18" stroke-width="1"/>
<line x1="680.71" y1="815.84" x2="922.26" y2="326.47" stroke="#3b4b5d" stroke-opacity="0.18" stroke-width="1"/>
<line x1="680.71" y1="815.84" x2="231.40" y2="229.83" stroke="#3b4b5d" stroke-opacity="0.18" stroke-width="1"/>
<line x1="922.26" y1="326.47" x2="231.40" y2="229.83" stroke="#3b4b5d" stroke-opacity="0.18" stroke-width="1"/>
<line x1="1069.30" y1="709.31" x2="212.05" y2="208.18" stroke="#3b4b5d" stroke-opacity="0.18" stroke-width="1"/>
<line x1="1069.30" y1="709.31" x2="92.07" y2="185.09" stroke="#3b4b5d" stroke-opacity="0.18" stroke-width="1"/>
<line x1="92.07" y1="185.09" x2="212.05" y2="208.18" stroke="#3b4b5d" stroke-opacity="0.18" stroke-width="1"/>
<line x1="92.07" y1="185.09" x2="719.67" y2="806.40" stroke="#3b4b5d" stroke-opacity="0.18" stroke-width="1"/>
<circle cx="115.35" cy="338.41" r="4" fill="hsl(108 70% 58%)" stroke="#0b0f14" stroke-width="1">
  <title>HeytingLean.WPP.Wolfram.WM148.P</title>
</circle>
<circle cx="72.05" cy="320.54" r="4" fill="hsl(108 70% 58%)" stroke="#0b0f14" stroke-width="1">
  <title>HeytingLean.WPP.Wolfram.WM148.V</title>
</circle>
<circle cx="1082.71" cy="669.59" r="4" fill="hsl(108 70% 58%)" stroke="#0b0f14" stroke-width="1">
  <title>HeytingLean.WPP.Wolfram.WM148.rule</title>
</circle>
<circle cx="674.94" cy="818.37" r="4" fill="hsl(108 70% 58%)" stroke="#0b0f14" stroke-width="1">
  <title>HeytingLean.WPP.Wolfram.WM148.init</title>
</circle>
<circle cx="108.19" cy="334.95" r="4" fill="hsl(108 70% 58%)" stroke="#0b0f14" stroke-width="1">
  <title>HeytingLean.WPP.Wolfram.WM148.sys</title>
</circle>
<circle cx="83.27" cy="207.48" r="4" fill="hsl(108 70% 58%)" stroke="#0b0f14" stroke-width="1">
  <title>HeytingLean.WPP.Wolfram.WM148.rule_wellFormed</title>
</circle>
<circle cx="191.03" cy="175.79" r="4" fill="hsl(108 70% 58%)" stroke="#0b0f14" stroke-width="1">
  <title>HeytingLean.WPP.Wolfram.WM148.freshNat</title>
</circle>
<circle cx="825.16" cy="824.49" r="4" fill="hsl(108 70% 58%)" stroke="#0b0f14" stroke-width="1">
  <title>HeytingLean.WPP.Wolfram.WM148.freshNat_not_mem</title>
</circle>
<circle cx="956.98" cy="293.76" r="4" fill="hsl(108 70% 58%)" stroke="#0b0f14" stroke-width="1">
  <title>HeytingLean.WPP.Wolfram.WM148.allocFreshNat</title>
</circle>
<circle cx="153.35" cy="223.93" r="4" fill="hsl(108 70% 58%)" stroke="#0b0f14" stroke-width="1">
  <title>HeytingLean.WPP.Wolfram.WM148.allocFreshNat_injective</title>
</circle>
<circle cx="776.30" cy="850.00" r="4" fill="hsl(108 70% 58%)" stroke="#0b0f14" stroke-width="1">
  <title>HeytingLean.WPP.Wolfram.WM148.allocFreshNat_not_mem</title>
</circle>
<circle cx="166.79" cy="235.38" r="4" fill="hsl(108 70% 58%)" stroke="#0b0f14" stroke-width="1">
  <title>HeytingLean.WPP.Wolfram.WM148.idx0</title>
</circle>
<circle cx="938.11" cy="320.16" r="4" fill="hsl(108 70% 58%)" stroke="#0b0f14" stroke-width="1">
  <title>HeytingLean.WPP.Wolfram.WM148.mkEvent</title>
</circle>
<circle cx="1078.88" cy="694.47" r="4" fill="hsl(108 70% 58%)" stroke="#0b0f14" stroke-width="1">
  <title>HeytingLean.WPP.Wolfram.WM148.applyDet</title>
</circle>
<circle cx="787.08" cy="57.73" r="4" fill="hsl(108 70% 58%)" stroke="#0b0f14" stroke-width="1">
  <title>HeytingLean.WPP.Wolfram.WM148.expr_rename_eq_self_of_forall_mem</title>
</circle>
<circle cx="842.49" cy="78.80" r="4" fill="hsl(108 70% 58%)" stroke="#0b0f14" stroke-width="1">
  <title>HeytingLean.WPP.Wolfram.WM148.hgraph_rename_eq_self_of_forall_mem</title>
</circle>
<circle cx="989.27" cy="136.24" r="4" fill="hsl(108 70% 58%)" stroke="#0b0f14" stroke-width="1">
  <title>HeytingLean.WPP.Wolfram.WM148.hgraph_rename_eq_self_of_fix_verts</title>
</circle>
<circle cx="1065.62" cy="314.91" r="4" fill="hsl(108 70% 58%)" stroke="#0b0f14" stroke-width="1">
  <title>HeytingLean.WPP.Wolfram.WM148.multiset_foldl_singleton</title>
</circle>
<circle cx="819.82" cy="788.53" r="4" fill="hsl(108 70% 58%)" stroke="#0b0f14" stroke-width="1">
  <title>HeytingLean.WPP.Wolfram.WM148.verts_add_singleton</title>
</circle>
<circle cx="307.77" cy="200.42" r="4" fill="hsl(108 70% 58%)" stroke="#0b0f14" stroke-width="1">
  <title>HeytingLean.WPP.Wolfram.WM148.wm148_rule_eq</title>
</circle>
<circle cx="719.78" cy="789.95" r="4" fill="hsl(108 70% 58%)" stroke="#0b0f14" stroke-width="1">
  <title>HeytingLean.WPP.Wolfram.WM148.wm148_nFresh</title>
</circle>
<circle cx="712.94" cy="835.78" r="4" fill="hsl(108 70% 58%)" stroke="#0b0f14" stroke-width="1">
  <title>HeytingLean.WPP.Wolfram.WM148.fresh0</title>
</circle>
<circle cx="99.54" cy="247.88" r="4" fill="hsl(108 70% 58%)" stroke="#0b0f14" stroke-width="1">
  <title>HeytingLean.WPP.Wolfram.WM148.input_eq_singleton</title>
</circle>
<circle cx="991.72" cy="536.57" r="4" fill="hsl(108 70% 58%)" stroke="#0b0f14" stroke-width="1">
  <title>HeytingLean.WPP.Wolfram.WM148.instRhs_eq_input_add_new</title>
</circle>
<circle cx="1023.01" cy="611.65" r="4" fill="hsl(108 70% 58%)" stroke="#0b0f14" stroke-width="1">
  <title>HeytingLean.WPP.Wolfram.WM148.applyWith_eq_add_new</title>
</circle>
<circle cx="731.78" cy="119.14" r="4" fill="hsl(108 70% 58%)" stroke="#0b0f14" stroke-width="1">
  <title>HeytingLean.WPP.Wolfram.WM148.causalInvariant</title>
</circle>
<circle cx="688.52" cy="219.67" r="4" fill="hsl(56 70% 58%)" stroke="#0b0f14" stroke-width="1">
  <title>HeytingLean.WPP.Wolfram.SystemFresh.StepWith</title>
</circle>
<circle cx="1140.00" cy="353.98" r="4" fill="hsl(56 70% 58%)" stroke="#0b0f14" stroke-width="1">
  <title>HeytingLean.WPP.Wolfram.SystemFresh.StepStarWith</title>
</circle>
<circle cx="367.82" cy="214.53" r="4" fill="hsl(56 70% 58%)" stroke="#0b0f14" stroke-width="1">
  <title>HeytingLean.WPP.Wolfram.SystemFresh.JoinableIso</title>
</circle>
<circle cx="1038.27" cy="337.74" r="4" fill="hsl(56 70% 58%)" stroke="#0b0f14" stroke-width="1">
  <title>HeytingLean.WPP.Wolfram.SystemFresh.BranchResolves</title>
</circle>
<circle cx="1068.81" cy="239.86" r="4" fill="hsl(56 70% 58%)" stroke="#0b0f14" stroke-width="1">
  <title>HeytingLean.WPP.Wolfram.SystemFresh.CausalInvariant</title>
</circle>
<circle cx="1130.32" cy="364.01" r="4" fill="hsl(92 70% 58%)" stroke="#0b0f14" stroke-width="1">
  <title>HeytingLean.WPP.Wolfram.FreshSupply.allocList</title>
</circle>
<circle cx="1009.13" cy="437.49" r="4" fill="hsl(92 70% 58%)" stroke="#0b0f14" stroke-width="1">
  <title>HeytingLean.WPP.Wolfram.FreshSupply.allocList_mem_not_mem_forbidden</title>
</circle>
<circle cx="1026.61" cy="690.09" r="4" fill="hsl(92 70% 58%)" stroke="#0b0f14" stroke-width="1">
  <title>HeytingLean.WPP.Wolfram.FreshSupply.allocList_nodup</title>
</circle>
<circle cx="1022.89" cy="429.30" r="4" fill="hsl(92 70% 58%)" stroke="#0b0f14" stroke-width="1">
  <title>HeytingLean.WPP.Wolfram.FreshSupply.allocVec</title>
</circle>
<circle cx="936.30" cy="408.78" r="4" fill="hsl(92 70% 58%)" stroke="#0b0f14" stroke-width="1">
  <title>HeytingLean.WPP.Wolfram.FreshSupply.alloc</title>
</circle>
<circle cx="749.54" cy="831.69" r="4" fill="hsl(92 70% 58%)" stroke="#0b0f14" stroke-width="1">
  <title>HeytingLean.WPP.Wolfram.FreshSupply.alloc_injective</title>
</circle>
<circle cx="1046.03" cy="705.31" r="4" fill="hsl(92 70% 58%)" stroke="#0b0f14" stroke-width="1">
  <title>HeytingLean.WPP.Wolfram.FreshSupply.alloc_not_mem</title>
</circle>
<circle cx="1137.39" cy="323.95" r="4" fill="hsl(277 70% 58%)" stroke="#0b0f14" stroke-width="1">
  <title>HeytingLean.WPP.Wolfram.RuleFresh</title>
</circle>
<circle cx="771.13" cy="205.29" r="4" fill="hsl(277 70% 58%)" stroke="#0b0f14" stroke-width="1">
  <title>HeytingLean.WPP.Wolfram.RuleFresh.WellFormed</title>
</circle>
<circle cx="315.67" cy="209.00" r="4" fill="hsl(56 70% 58%)" stroke="#0b0f14" stroke-width="1">
  <title>HeytingLean.WPP.Wolfram.SystemFresh</title>
</circle>
<circle cx="920.97" cy="295.15" r="4" fill="hsl(56 70% 58%)" stroke="#0b0f14" stroke-width="1">
  <title>HeytingLean.WPP.Wolfram.SystemFresh.Event</title>
</circle>
<circle cx="1042.73" cy="193.90" r="4" fill="hsl(56 70% 58%)" stroke="#0b0f14" stroke-width="1">
  <title>HeytingLean.WPP.Wolfram.SystemFresh.Event.FreshAssign</title>
</circle>
<circle cx="185.13" cy="189.59" r="4" fill="hsl(56 70% 58%)" stroke="#0b0f14" stroke-width="1">
  <title>HeytingLean.WPP.Wolfram.SystemFresh.Event.Applicable</title>
</circle>
<circle cx="929.64" cy="442.84" r="4" fill="hsl(56 70% 58%)" stroke="#0b0f14" stroke-width="1">
  <title>HeytingLean.WPP.Wolfram.SystemFresh.Event.applyWith</title>
</circle>
<circle cx="1085.33" cy="711.57" r="4" fill="hsl(56 70% 58%)" stroke="#0b0f14" stroke-width="1">
  <title>HeytingLean.WPP.Wolfram.SystemFresh.Event.apply</title>
</circle>
<circle cx="969.58" cy="483.84" r="4" fill="hsl(56 70% 58%)" stroke="#0b0f14" stroke-width="1">
  <title>HeytingLean.WPP.Wolfram.SystemFresh.Event.freshAssign_alloc</title>
</circle>
<circle cx="971.30" cy="406.37" r="4" fill="hsl(56 70% 58%)" stroke="#0b0f14" stroke-width="1">
  <title>HeytingLean.WPP.Wolfram.SystemFresh.Event.rangeFinset</title>
</circle>
<circle cx="825.01" cy="340.74" r="4" fill="hsl(56 70% 58%)" stroke="#0b0f14" stroke-width="1">
  <title>HeytingLean.WPP.Wolfram.SystemFresh.Event.mem_rangeFinset</title>
</circle>
<circle cx="984.29" cy="192.36" r="4" fill="hsl(56 70% 58%)" stroke="#0b0f14" stroke-width="1">
  <title>HeytingLean.WPP.Wolfram.SystemFresh.Event.CrossDisjoint</title>
</circle>
<circle cx="958.17" cy="186.22" r="4" fill="hsl(56 70% 58%)" stroke="#0b0f14" stroke-width="1">
  <title>HeytingLean.WPP.Wolfram.SystemFresh.Event.crossDisjoint_of_not_mem_range</title>
</circle>
<circle cx="1129.06" cy="294.02" r="4" fill="hsl(56 70% 58%)" stroke="#0b0f14" stroke-width="1">
  <title>HeytingLean.WPP.Wolfram.SystemFresh.Event.swapPerm</title>
</circle>
<circle cx="821.98" cy="50.00" r="4" fill="hsl(56 70% 58%)" stroke="#0b0f14" stroke-width="1">
  <title>HeytingLean.WPP.Wolfram.SystemFresh.Event.swapPerm_apply_of_forall_ne</title>
</circle>
<circle cx="768.79" cy="98.40" r="4" fill="hsl(56 70% 58%)" stroke="#0b0f14" stroke-width="1">
  <title>HeytingLean.WPP.Wolfram.SystemFresh.Event.swapPerm_apply_left</title>
</circle>
<circle cx="952.51" cy="119.17" r="4" fill="hsl(56 70% 58%)" stroke="#0b0f14" stroke-width="1">
  <title>HeytingLean.WPP.Wolfram.SystemFresh.Event.swapPerm_fix_of_mem_verts</title>
</circle>
<circle cx="852.45" cy="58.36" r="4" fill="hsl(56 70% 58%)" stroke="#0b0f14" stroke-width="1">
  <title>HeytingLean.WPP.Wolfram.SystemFresh.Event.expr_rename_eq_self_of_forall_mem</title>
</circle>
<circle cx="806.47" cy="94.79" r="4" fill="hsl(56 70% 58%)" stroke="#0b0f14" stroke-width="1">
  <title>HeytingLean.WPP.Wolfram.SystemFresh.Event.hgraph_rename_eq_self_of_forall_mem</title>
</circle>
<circle cx="1002.94" cy="147.74" r="4" fill="hsl(56 70% 58%)" stroke="#0b0f14" stroke-width="1">
  <title>HeytingLean.WPP.Wolfram.SystemFresh.Event.hgraph_rename_eq_self_of_fix_verts</title>
</circle>
<circle cx="942.06" cy="154.22" r="4" fill="hsl(56 70% 58%)" stroke="#0b0f14" stroke-width="1">
  <title>HeytingLean.WPP.Wolfram.SystemFresh.Event.hgraph_rename_eq_self_of_le</title>
</circle>
<circle cx="844.83" cy="837.63" r="4" fill="hsl(56 70% 58%)" stroke="#0b0f14" stroke-width="1">
  <title>HeytingLean.WPP.Wolfram.SystemFresh.Event.sigma_mem_verts_of_inLhs</title>
</circle>
<circle cx="791.95" cy="179.81" r="4" fill="hsl(56 70% 58%)" stroke="#0b0f14" stroke-width="1">
  <title>HeytingLean.WPP.Wolfram.SystemFresh.Event.sigma_fixed_of_inRhs</title>
</circle>
<circle cx="785.96" cy="160.56" r="4" fill="hsl(56 70% 58%)" stroke="#0b0f14" stroke-width="1">
  <title>HeytingLean.WPP.Wolfram.SystemFresh.Event.applyWith_rename_of_crossDisjoint</title>
</circle>
<circle cx="940.79" cy="435.33" r="4" fill="hsl(56 70% 58%)" stroke="#0b0f14" stroke-width="1">
  <title>HeytingLean.WPP.Wolfram.SystemFresh.Event.applyWith_iso_of_crossDisjoint</title>
</circle>
<circle cx="1094.07" cy="386.30" r="4" fill="hsl(56 70% 58%)" stroke="#0b0f14" stroke-width="1">
  <title>HeytingLean.WPP.Wolfram.SystemFresh.Event.applyWith_iso</title>
</circle>
<circle cx="104.46" cy="335.17" r="4" fill="hsl(158 70% 58%)" stroke="#0b0f14" stroke-width="1">
  <title>HeytingLean.CLI.WolframWM148.Args</title>
</circle>
<circle cx="85.50" cy="171.19" r="4" fill="hsl(158 70% 58%)" stroke="#0b0f14" stroke-width="1">
  <title>HeytingLean.CLI.WolframWM148.parseArg</title>
</circle>
<circle cx="225.29" cy="203.76" r="4" fill="hsl(158 70% 58%)" stroke="#0b0f14" stroke-width="1">
  <title>HeytingLean.CLI.WolframWM148.parseArgs</title>
</circle>
<circle cx="680.71" cy="815.84" r="4" fill="hsl(158 70% 58%)" stroke="#0b0f14" stroke-width="1">
  <title>HeytingLean.CLI.WolframWM148.exprToJsonNat</title>
</circle>
<circle cx="922.26" cy="326.47" r="4" fill="hsl(158 70% 58%)" stroke="#0b0f14" stroke-width="1">
  <title>HeytingLean.CLI.WolframWM148.sigmaFin2ToJsonNat</title>
</circle>
<circle cx="757.26" cy="800.39" r="4" fill="hsl(158 70% 58%)" stroke="#0b0f14" stroke-width="1">
  <title>HeytingLean.CLI.WolframWM148.mkBasisLen1Len2Nat</title>
</circle>
<circle cx="1069.30" cy="709.31" r="4" fill="hsl(158 70% 58%)" stroke="#0b0f14" stroke-width="1">
  <title>HeytingLean.CLI.WolframWM148.stateToCountsJsonNat</title>
</circle>
<circle cx="50.00" cy="182.36" r="4" fill="hsl(158 70% 58%)" stroke="#0b0f14" stroke-width="1">
  <title>HeytingLean.CLI.WolframWM148.findIdxFuel</title>
</circle>
<circle cx="231.40" cy="229.83" r="4" fill="hsl(158 70% 58%)" stroke="#0b0f14" stroke-width="1">
  <title>HeytingLean.CLI.WolframWM148.findIdx</title>
</circle>
<circle cx="92.07" cy="185.09" r="4" fill="hsl(158 70% 58%)" stroke="#0b0f14" stroke-width="1">
  <title>HeytingLean.CLI.WolframWM148.getIdx</title>
</circle>
<circle cx="719.67" cy="806.40" r="4" fill="hsl(158 70% 58%)" stroke="#0b0f14" stroke-width="1">
  <title>HeytingLean.CLI.WolframWM148.dedupArray</title>
</circle>
<circle cx="1035.61" cy="626.03" r="4" fill="hsl(158 70% 58%)" stroke="#0b0f14" stroke-width="1">
  <title>HeytingLean.CLI.WolframWM148.buildWM148Multiway</title>
</circle>
<circle cx="212.05" cy="208.18" r="4" fill="hsl(158 70% 58%)" stroke="#0b0f14" stroke-width="1">
  <title>HeytingLean.CLI.WolframWM148.run</title>
</circle>
<circle cx="226.43" cy="166.67" r="4" fill="hsl(285 70% 58%)" stroke="#0b0f14" stroke-width="1">
  <title>main</title>
</circle>
<text x="1170" y="50" fill="#ffffff" font-size="16" font-family="ui-sans-serif,system-ui,Segoe UI,Roboto,Helvetica,Arial">Legend</text>
<rect x="1170" y="64" width="10" height="10" fill="hsl(56 70% 58%)" stroke="hsl(56 70% 32%)" stroke-width="1"/>
<text x="1186" y="73" fill="#e6eef7" font-size="12" font-family="ui-sans-serif,system-ui,Segoe UI,Roboto,Helvetica,Arial">SystemFresh <tspan fill="#b8c7d9">(29)</tspan></text>
<rect x="1170" y="80" width="10" height="10" fill="hsl(108 70% 58%)" stroke="hsl(108 70% 32%)" stroke-width="1"/>
<text x="1186" y="89" fill="#e6eef7" font-size="12" font-family="ui-sans-serif,system-ui,Segoe UI,Roboto,Helvetica,Arial">WM148 <tspan fill="#b8c7d9">(26)</tspan></text>
<rect x="1170" y="96" width="10" height="10" fill="hsl(158 70% 58%)" stroke="hsl(158 70% 32%)" stroke-width="1"/>
<text x="1186" y="105" fill="#e6eef7" font-size="12" font-family="ui-sans-serif,system-ui,Segoe UI,Roboto,Helvetica,Arial">CLI.WolframWM148 <tspan fill="#b8c7d9">(13)</tspan></text>
<rect x="1170" y="112" width="10" height="10" fill="hsl(92 70% 58%)" stroke="hsl(92 70% 32%)" stroke-width="1"/>
<text x="1186" y="121" fill="#e6eef7" font-size="12" font-family="ui-sans-serif,system-ui,Segoe UI,Roboto,Helvetica,Arial">FreshSupply <tspan fill="#b8c7d9">(7)</tspan></text>
<rect x="1170" y="128" width="10" height="10" fill="hsl(277 70% 58%)" stroke="hsl(277 70% 32%)" stroke-width="1"/>
<text x="1186" y="137" fill="#e6eef7" font-size="12" font-family="ui-sans-serif,system-ui,Segoe UI,Roboto,Helvetica,Arial">RuleFresh <tspan fill="#b8c7d9">(2)</tspan></text>
<rect x="1170" y="144" width="10" height="10" fill="hsl(285 70% 58%)" stroke="hsl(285 70% 32%)" stroke-width="1"/>
<text x="1186" y="153" fill="#e6eef7" font-size="12" font-family="ui-sans-serif,system-ui,Segoe UI,Roboto,Helvetica,Arial">Other <tspan fill="#b8c7d9">(1)</tspan></text>

</svg>
