<?xml version="1.0" encoding="UTF-8" standalone="no"?>
<!DOCTYPE svg PUBLIC "-//W3C//DTD SVG 1.1//EN"
 "http://www.w3.org/Graphics/SVG/1.1/DTD/svg11.dtd">
<!-- Generated by graphviz version 2.43.0 (0)
 -->
<!-- Title: G Pages: 1 -->
<svg width="543pt" height="528pt"
 viewBox="0.00 0.00 543.00 528.00" xmlns="http://www.w3.org/2000/svg" xmlns:xlink="http://www.w3.org/1999/xlink">
<g id="graph0" class="graph" transform="scale(1 1) rotate(0) translate(4 524)">
<title>G</title>
<polygon fill="white" stroke="transparent" points="-4,4 -4,-524 539,-524 539,4 -4,4"/>
<g id="clust1" class="cluster">
<title>cluster_depth_0</title>
<path fill="white" stroke="lightgray" d="M20,-231C20,-231 71,-231 71,-231 77,-231 83,-237 83,-243 83,-243 83,-290 83,-290 83,-296 77,-302 71,-302 71,-302 20,-302 20,-302 14,-302 8,-296 8,-290 8,-290 8,-243 8,-243 8,-237 14,-231 20,-231"/>
<text text-anchor="middle" x="45.5" y="-290" font-family="Times,serif" font-size="10.00">depth 0</text>
</g>
<g id="clust2" class="cluster">
<title>cluster_depth_1</title>
<path fill="white" stroke="lightgray" d="M168,-228C168,-228 219,-228 219,-228 225,-228 231,-234 231,-240 231,-240 231,-293 231,-293 231,-299 225,-305 219,-305 219,-305 168,-305 168,-305 162,-305 156,-299 156,-293 156,-293 156,-240 156,-240 156,-234 162,-228 168,-228"/>
<text text-anchor="middle" x="193.5" y="-293" font-family="Times,serif" font-size="10.00">depth 1</text>
</g>
<g id="clust3" class="cluster">
<title>cluster_depth_2</title>
<path fill="white" stroke="lightgray" d="M316,-184C316,-184 367,-184 367,-184 373,-184 379,-190 379,-196 379,-196 379,-329 379,-329 379,-335 373,-341 367,-341 367,-341 316,-341 316,-341 310,-341 304,-335 304,-329 304,-329 304,-196 304,-196 304,-190 310,-184 316,-184"/>
<text text-anchor="middle" x="341.5" y="-329" font-family="Times,serif" font-size="10.00">depth 2</text>
</g>
<g id="clust4" class="cluster">
<title>cluster_depth_3</title>
<path fill="white" stroke="lightgray" d="M464,-8C464,-8 515,-8 515,-8 521,-8 527,-14 527,-20 527,-20 527,-500 527,-500 527,-506 521,-512 515,-512 515,-512 464,-512 464,-512 458,-512 452,-506 452,-500 452,-500 452,-20 452,-20 452,-14 458,-8 464,-8"/>
<text text-anchor="middle" x="489.5" y="-500" font-family="Times,serif" font-size="10.00">depth 3</text>
</g>
<!-- n0 -->
<g id="node1" class="node">
<title>n0</title>
<polygon fill="none" stroke="black" points="75,-275 16,-275 16,-239 75,-239 75,-275"/>
<text text-anchor="middle" x="45.5" y="-260" font-family="monospace" font-size="10.00">id=0</text>
<text text-anchor="middle" x="45.5" y="-249" font-family="monospace" font-size="10.00">[0,0]×1</text>
</g>
<!-- n1 -->
<g id="node2" class="node">
<title>n1</title>
<polygon fill="none" stroke="black" points="223,-277.5 164,-277.5 164,-236.5 223,-236.5 223,-277.5"/>
<text text-anchor="middle" x="193.5" y="-265.5" font-family="monospace" font-size="10.00">id=1</text>
<text text-anchor="middle" x="193.5" y="-254.5" font-family="monospace" font-size="10.00">[0,0]×1</text>
<text text-anchor="middle" x="193.5" y="-243.5" font-family="monospace" font-size="10.00">[0,1]×1</text>
</g>
<!-- n0&#45;&gt;n1 -->
<g id="edge1" class="edge">
<title>n0&#45;&gt;n1</title>
<path fill="none" stroke="black" d="M75.34,-257C97.74,-257 129.02,-257 153.62,-257"/>
<polygon fill="black" stroke="black" points="153.72,-260.5 163.72,-257 153.71,-253.5 153.72,-260.5"/>
<text text-anchor="middle" x="119.5" y="-259.8" font-family="monospace" font-size="9.00">r0 σ=(0,0)</text>
</g>
<!-- n2 -->
<g id="node3" class="node">
<title>n2</title>
<polygon fill="none" stroke="black" points="371,-314 312,-314 312,-262 371,-262 371,-314"/>
<text text-anchor="middle" x="341.5" y="-302" font-family="monospace" font-size="10.00">id=2</text>
<text text-anchor="middle" x="341.5" y="-291" font-family="monospace" font-size="10.00">[0,0]×1</text>
<text text-anchor="middle" x="341.5" y="-280" font-family="monospace" font-size="10.00">[0,1]×1</text>
<text text-anchor="middle" x="341.5" y="-269" font-family="monospace" font-size="10.00">[0,2]×1</text>
</g>
<!-- n1&#45;&gt;n2 -->
<g id="edge2" class="edge">
<title>n1&#45;&gt;n2</title>
<path fill="none" stroke="black" d="M223.34,-263.12C245.74,-267.88 277.02,-274.52 301.62,-279.75"/>
<polygon fill="black" stroke="black" points="301.21,-283.23 311.72,-281.89 302.66,-276.39 301.21,-283.23"/>
<text text-anchor="middle" x="267.5" y="-279.8" font-family="monospace" font-size="9.00">r0 σ=(0,0)</text>
</g>
<!-- n3 -->
<g id="node4" class="node">
<title>n3</title>
<polygon fill="none" stroke="black" points="371,-244 312,-244 312,-192 371,-192 371,-244"/>
<text text-anchor="middle" x="341.5" y="-232" font-family="monospace" font-size="10.00">id=3</text>
<text text-anchor="middle" x="341.5" y="-221" font-family="monospace" font-size="10.00">[0,0]×1</text>
<text text-anchor="middle" x="341.5" y="-210" font-family="monospace" font-size="10.00">[0,1]×1</text>
<text text-anchor="middle" x="341.5" y="-199" font-family="monospace" font-size="10.00">[1,2]×1</text>
</g>
<!-- n1&#45;&gt;n3 -->
<g id="edge3" class="edge">
<title>n1&#45;&gt;n3</title>
<path fill="none" stroke="black" d="M223.34,-249.29C245.84,-243.29 277.3,-234.88 301.95,-228.3"/>
<polygon fill="black" stroke="black" points="302.96,-231.65 311.72,-225.69 301.15,-224.89 302.96,-231.65"/>
<text text-anchor="middle" x="267.5" y="-246.8" font-family="monospace" font-size="9.00">r0 σ=(0,1)</text>
</g>
<!-- n4 -->
<g id="node5" class="node">
<title>n4</title>
<polygon fill="none" stroke="black" points="519,-484.5 460,-484.5 460,-421.5 519,-421.5 519,-484.5"/>
<text text-anchor="middle" x="489.5" y="-472.5" font-family="monospace" font-size="10.00">id=4</text>
<text text-anchor="middle" x="489.5" y="-461.5" font-family="monospace" font-size="10.00">[0,0]×1</text>
<text text-anchor="middle" x="489.5" y="-450.5" font-family="monospace" font-size="10.00">[0,1]×1</text>
<text text-anchor="middle" x="489.5" y="-439.5" font-family="monospace" font-size="10.00">[0,2]×1</text>
<text text-anchor="middle" x="489.5" y="-428.5" font-family="monospace" font-size="10.00">[0,3]×1</text>
</g>
<!-- n2&#45;&gt;n4 -->
<g id="edge4" class="edge">
<title>n2&#45;&gt;n4</title>
<path fill="none" stroke="black" d="M357.99,-314.25C366.47,-327.82 377.57,-344.36 389,-358 408.23,-380.95 432.49,-404.2 452.23,-421.96"/>
<polygon fill="black" stroke="black" points="450.04,-424.69 459.84,-428.73 454.69,-419.46 450.04,-424.69"/>
<text text-anchor="middle" x="415.5" y="-413.8" font-family="monospace" font-size="9.00">r0 σ=(0,0)</text>
</g>
<!-- n5 -->
<g id="node6" class="node">
<title>n5</title>
<polygon fill="none" stroke="black" points="519,-403.5 460,-403.5 460,-340.5 519,-340.5 519,-403.5"/>
<text text-anchor="middle" x="489.5" y="-391.5" font-family="monospace" font-size="10.00">id=5</text>
<text text-anchor="middle" x="489.5" y="-380.5" font-family="monospace" font-size="10.00">[0,0]×1</text>
<text text-anchor="middle" x="489.5" y="-369.5" font-family="monospace" font-size="10.00">[0,1]×1</text>
<text text-anchor="middle" x="489.5" y="-358.5" font-family="monospace" font-size="10.00">[0,2]×1</text>
<text text-anchor="middle" x="489.5" y="-347.5" font-family="monospace" font-size="10.00">[1,3]×1</text>
</g>
<!-- n2&#45;&gt;n5 -->
<g id="edge5" class="edge">
<title>n2&#45;&gt;n5</title>
<path fill="none" stroke="black" d="M371.34,-304.6C394.14,-317.71 426.14,-336.12 450.94,-350.39"/>
<polygon fill="black" stroke="black" points="449.3,-353.49 459.72,-355.44 452.79,-347.42 449.3,-353.49"/>
<text text-anchor="middle" x="415.5" y="-346.8" font-family="monospace" font-size="9.00">r0 σ=(0,1)</text>
</g>
<!-- n6 -->
<g id="node7" class="node">
<title>n6</title>
<polygon fill="none" stroke="black" points="519,-322.5 460,-322.5 460,-259.5 519,-259.5 519,-322.5"/>
<text text-anchor="middle" x="489.5" y="-310.5" font-family="monospace" font-size="10.00">id=6</text>
<text text-anchor="middle" x="489.5" y="-299.5" font-family="monospace" font-size="10.00">[0,0]×1</text>
<text text-anchor="middle" x="489.5" y="-288.5" font-family="monospace" font-size="10.00">[0,1]×1</text>
<text text-anchor="middle" x="489.5" y="-277.5" font-family="monospace" font-size="10.00">[0,2]×1</text>
<text text-anchor="middle" x="489.5" y="-266.5" font-family="monospace" font-size="10.00">[2,3]×1</text>
</g>
<!-- n2&#45;&gt;n6 -->
<g id="edge6" class="edge">
<title>n2&#45;&gt;n6</title>
<path fill="none" stroke="black" d="M371.34,-288.59C393.74,-289.05 425.02,-289.7 449.62,-290.2"/>
<polygon fill="black" stroke="black" points="449.65,-293.7 459.72,-290.41 449.79,-286.7 449.65,-293.7"/>
<text text-anchor="middle" x="415.5" y="-292.8" font-family="monospace" font-size="9.00">r0 σ=(0,2)</text>
</g>
<!-- n7 -->
<g id="node8" class="node">
<title>n7</title>
<polygon fill="none" stroke="black" points="519,-241.5 460,-241.5 460,-178.5 519,-178.5 519,-241.5"/>
<text text-anchor="middle" x="489.5" y="-229.5" font-family="monospace" font-size="10.00">id=7</text>
<text text-anchor="middle" x="489.5" y="-218.5" font-family="monospace" font-size="10.00">[0,0]×1</text>
<text text-anchor="middle" x="489.5" y="-207.5" font-family="monospace" font-size="10.00">[0,1]×1</text>
<text text-anchor="middle" x="489.5" y="-196.5" font-family="monospace" font-size="10.00">[0,3]×1</text>
<text text-anchor="middle" x="489.5" y="-185.5" font-family="monospace" font-size="10.00">[1,2]×1</text>
</g>
<!-- n3&#45;&gt;n7 -->
<g id="edge7" class="edge">
<title>n3&#45;&gt;n7</title>
<path fill="none" stroke="black" d="M371.34,-216.42C393.74,-215.19 425.02,-213.48 449.62,-212.13"/>
<polygon fill="black" stroke="black" points="449.92,-215.62 459.72,-211.58 449.54,-208.63 449.92,-215.62"/>
<text text-anchor="middle" x="415.5" y="-217.8" font-family="monospace" font-size="9.00">r0 σ=(0,0)</text>
</g>
<!-- n8 -->
<g id="node9" class="node">
<title>n8</title>
<polygon fill="none" stroke="black" points="519,-160.5 460,-160.5 460,-97.5 519,-97.5 519,-160.5"/>
<text text-anchor="middle" x="489.5" y="-148.5" font-family="monospace" font-size="10.00">id=8</text>
<text text-anchor="middle" x="489.5" y="-137.5" font-family="monospace" font-size="10.00">[0,0]×1</text>
<text text-anchor="middle" x="489.5" y="-126.5" font-family="monospace" font-size="10.00">[0,1]×1</text>
<text text-anchor="middle" x="489.5" y="-115.5" font-family="monospace" font-size="10.00">[1,2]×1</text>
<text text-anchor="middle" x="489.5" y="-104.5" font-family="monospace" font-size="10.00">[1,3]×1</text>
</g>
<!-- n3&#45;&gt;n8 -->
<g id="edge8" class="edge">
<title>n3&#45;&gt;n8</title>
<path fill="none" stroke="black" d="M371.34,-200.42C394.14,-186.52 426.14,-167.01 450.94,-151.9"/>
<polygon fill="black" stroke="black" points="453,-154.74 459.72,-146.55 449.35,-148.76 453,-154.74"/>
<text text-anchor="middle" x="415.5" y="-191.8" font-family="monospace" font-size="9.00">r0 σ=(0,1)</text>
</g>
<!-- n9 -->
<g id="node10" class="node">
<title>n9</title>
<polygon fill="none" stroke="black" points="519,-79.5 460,-79.5 460,-16.5 519,-16.5 519,-79.5"/>
<text text-anchor="middle" x="489.5" y="-67.5" font-family="monospace" font-size="10.00">id=9</text>
<text text-anchor="middle" x="489.5" y="-56.5" font-family="monospace" font-size="10.00">[0,0]×1</text>
<text text-anchor="middle" x="489.5" y="-45.5" font-family="monospace" font-size="10.00">[0,1]×1</text>
<text text-anchor="middle" x="489.5" y="-34.5" font-family="monospace" font-size="10.00">[1,2]×1</text>
<text text-anchor="middle" x="489.5" y="-23.5" font-family="monospace" font-size="10.00">[2,3]×1</text>
</g>
<!-- n3&#45;&gt;n9 -->
<g id="edge9" class="edge">
<title>n3&#45;&gt;n9</title>
<path fill="none" stroke="black" d="M356.48,-191.92C365.02,-176.98 376.64,-158.23 389,-143 407.87,-119.75 432.12,-96.49 451.95,-78.81"/>
<polygon fill="black" stroke="black" points="454.41,-81.31 459.59,-72.07 449.78,-76.06 454.41,-81.31"/>
<text text-anchor="middle" x="415.5" y="-145.8" font-family="monospace" font-size="9.00">r0 σ=(1,2)</text>
</g>
</g>
</svg>
