<?xml version="1.0" encoding="UTF-8" standalone="no"?>
<!DOCTYPE svg PUBLIC "-//W3C//DTD SVG 1.1//EN"
 "http://www.w3.org/Graphics/SVG/1.1/DTD/svg11.dtd">
<!-- Generated by graphviz version 2.43.0 (0)
 -->
<!-- Title: G Pages: 1 -->
<svg width="380pt" height="132pt"
 viewBox="0.00 0.00 380.00 132.00" xmlns="http://www.w3.org/2000/svg" xmlns:xlink="http://www.w3.org/1999/xlink">
<g id="graph0" class="graph" transform="scale(1 1) rotate(0) translate(4 128)">
<title>G</title>
<polygon fill="white" stroke="transparent" points="-4,4 -4,-128 376,-128 376,4 -4,4"/>
<g id="clust1" class="cluster">
<title>cluster_depth_0</title>
<path fill="white" stroke="lightgray" d="M20,-8C20,-8 71,-8 71,-8 77,-8 83,-14 83,-20 83,-20 83,-83 83,-83 83,-89 77,-95 71,-95 71,-95 20,-95 20,-95 14,-95 8,-89 8,-83 8,-83 8,-20 8,-20 8,-14 14,-8 20,-8"/>
<text text-anchor="middle" x="45.5" y="-83" font-family="Times,serif" font-size="10.00">depth 0</text>
</g>
<g id="clust2" class="cluster">
<title>cluster_depth_1</title>
<path fill="white" stroke="lightgray" d="M168,-39C168,-39 352,-39 352,-39 358,-39 364,-45 364,-51 364,-51 364,-104 364,-104 364,-110 358,-116 352,-116 352,-116 168,-116 168,-116 162,-116 156,-110 156,-104 156,-104 156,-51 156,-51 156,-45 162,-39 168,-39"/>
<text text-anchor="middle" x="260" y="-104" font-family="Times,serif" font-size="10.00">depth 1</text>
</g>
<!-- n0 -->
<g id="node1" class="node">
<title>n0</title>
<polygon fill="none" stroke="black" points="75,-68 16,-68 16,-16 75,-16 75,-68"/>
<text text-anchor="middle" x="45.5" y="-56" font-family="monospace" font-size="10.00">id=0</text>
<text text-anchor="middle" x="45.5" y="-45" font-family="monospace" font-size="10.00">[0]×1</text>
<text text-anchor="middle" x="45.5" y="-34" font-family="monospace" font-size="10.00">[0,1]×1</text>
<text text-anchor="middle" x="45.5" y="-23" font-family="monospace" font-size="10.00">[1,0]×1</text>
</g>
<!-- n1 -->
<g id="node2" class="node">
<title>n1</title>
<polygon fill="none" stroke="black" points="218,-88 164,-88 164,-52 218,-52 218,-88"/>
<text text-anchor="middle" x="191" y="-73" font-family="monospace" font-size="10.00">id=1</text>
<text text-anchor="middle" x="191" y="-62" font-family="monospace" font-size="10.00">[0]×2</text>
</g>
<!-- n0&#45;&gt;n1 -->
<g id="edge1" class="edge">
<title>n0&#45;&gt;n1</title>
<path fill="none" stroke="black" d="M75.19,-47.6C97.81,-52.01 129.48,-58.19 153.83,-62.94"/>
<polygon fill="black" stroke="black" points="153.29,-66.4 163.77,-64.88 154.63,-59.53 153.29,-66.4"/>
<text text-anchor="middle" x="119.5" y="-62.8" font-family="monospace" font-size="9.00">r0 σ=(0,1)</text>
</g>
<!-- n2 -->
<g id="node3" class="node">
<title>n2</title>
<polygon fill="none" stroke="black" points="356,-88.5 302,-88.5 302,-47.5 356,-47.5 356,-88.5"/>
<text text-anchor="middle" x="329" y="-76.5" font-family="monospace" font-size="10.00">id=2</text>
<text text-anchor="middle" x="329" y="-65.5" font-family="monospace" font-size="10.00">[0]×1</text>
<text text-anchor="middle" x="329" y="-54.5" font-family="monospace" font-size="10.00">[1]×1</text>
</g>
<!-- n0&#45;&gt;n2 -->
<g id="edge2" class="edge">
<title>n0&#45;&gt;n2</title>
<path fill="none" stroke="black" d="M75.21,-36.91C109.42,-31.67 168.21,-25.27 218,-33 243.47,-36.95 271.12,-45.77 292.32,-53.57"/>
<polygon fill="black" stroke="black" points="291.29,-56.92 301.88,-57.17 293.76,-50.37 291.29,-56.92"/>
<text text-anchor="middle" x="191" y="-35.8" font-family="monospace" font-size="9.00">r0 σ=(1,0)</text>
</g>
<!-- n1&#45;&gt;n2 -->
<g id="edge3" class="edge">
<title>n1&#45;&gt;n2</title>
<path fill="none" stroke="royalblue" stroke-dasharray="5,2" d="M218.22,-69.61C242.3,-69.26 277.8,-68.74 301.86,-68.38"/>
<text text-anchor="middle" x="260" y="-71.8" font-family="monospace" font-size="9.00">branchial</text>
</g>
</g>
</svg>
